<svg xmlns="http://www.w3.org/2000/svg" width="140" height="49" viewBox="0 0 140 49" fill="none">
  <path d="M6.61571 1H133.624C136.722 1 139.24 3.51771 139.24 6.61571V42.1819C139.24 45.2799 136.722 47.7976 133.624 47.7976H6.61571C3.51771 47.7976 1 45.2799 1 42.1819V6.61571C1 3.51771 3.51771 1 6.61571 1Z" fill="white" stroke="white" stroke-opacity="0.200093" stroke-width="1.33333"/>
  <path fill-rule="evenodd" clip-rule="evenodd" d="M27.9365 13.4858C28.8444 12.3533 29.4621 10.809 29.2937 9.23657C27.9833 9.29273 26.3361 10.1444 25.3908 11.2582C24.5578 12.241 23.809 13.8415 23.9962 15.3483C25.475 15.4606 26.9912 14.5996 27.9365 13.4858ZM31.2591 23.3318C31.2315 20.0354 33.9124 18.4058 34.1152 18.2825L34.1231 18.2776C32.5507 15.9939 30.1173 15.6757 29.2655 15.6476C28.0172 15.5159 26.7898 16.0044 25.7871 16.4034C25.151 16.6565 24.6053 16.8737 24.202 16.8737C23.7426 16.8737 23.1788 16.6476 22.547 16.3941C21.7244 16.0642 20.7864 15.6879 19.8124 15.7038C17.5942 15.7412 15.5071 17.0235 14.3746 19.0264C12.0253 23.0978 13.7756 29.0879 16.0312 32.3824C17.1637 33.9923 18.474 35.7986 20.2055 35.7331C20.9882 35.7027 21.5447 35.4682 22.1198 35.2259C22.7826 34.9466 23.4703 34.6568 24.5577 34.6568C25.5913 34.6568 26.2506 34.9381 26.8833 35.2081C27.4881 35.4662 28.0686 35.714 28.9286 35.6957C30.7444 35.6676 31.8769 34.0765 32.9719 32.4479C34.2729 30.6041 34.797 28.779 34.8157 28.6854L34.8137 28.6846C34.7073 28.6428 31.2962 27.3019 31.2591 23.3318ZM53.3477 30.6992H55.7063L51.2418 16.8752H48.4901L44.0443 30.6992H46.3374L47.5635 26.6371H52.0561L53.3477 30.6992ZM51.6724 24.9338L50.5024 21.3304C50.3807 20.956 50.1468 20.0949 49.8098 18.7284H49.763C49.6226 19.3181 49.4074 20.1885 49.1078 21.3304L47.9566 24.9338H51.6724ZM65.7488 29.6135C66.6754 28.6308 67.134 27.2924 67.134 25.5983C67.134 24.0727 66.7409 22.856 65.936 21.92C65.1498 20.9934 64.1764 20.5254 62.9971 20.5254C61.4996 20.5254 60.3765 21.1244 59.6371 22.3131H59.5996L59.4779 20.7313H57.5312C57.5873 21.8545 57.6154 22.9402 57.6154 24.0072V34.7425H59.8336V29.5106C60.4139 30.4559 61.3592 30.9239 62.6789 30.9239C63.8956 30.9239 64.9252 30.4933 65.7488 29.6135ZM64.8784 25.6732C64.8784 24.6998 64.6632 23.9042 64.2233 23.2772C63.7459 22.622 63.1001 22.2944 62.2952 22.2944C61.7523 22.2944 61.2563 22.4816 60.807 22.8373C60.3671 23.2023 60.0676 23.6703 59.9366 24.2599C59.8711 24.5313 59.8336 24.756 59.8336 24.9338V26.5998C59.8336 27.3205 60.0583 27.9382 60.4982 28.4342C60.9381 28.9303 61.5184 29.183 62.2297 29.183C63.0627 29.183 63.7085 28.8554 64.1765 28.219C64.6444 27.5732 64.8784 26.7308 64.8784 25.6732ZM77.2049 29.6135C78.1315 28.6308 78.5901 27.2924 78.5901 25.5983C78.5901 24.0727 78.197 22.856 77.3921 21.92C76.6059 20.9934 75.6325 20.5254 74.4532 20.5254C72.9557 20.5254 71.8326 21.1244 71.0932 22.3131H71.0557L70.934 20.7313H68.9873C69.0434 21.8545 69.0715 22.9402 69.0715 24.0072V34.7425H71.2897V29.5106C71.87 30.4559 72.8153 30.9239 74.135 30.9239C75.3517 30.9239 76.3813 30.4933 77.2049 29.6135ZM76.3345 25.6732C76.3345 24.6998 76.1193 23.9042 75.6794 23.2772C75.202 22.622 74.5562 22.2944 73.7513 22.2944C73.2084 22.2944 72.7124 22.4816 72.2631 22.8373C71.8232 23.2023 71.5331 23.6703 71.3927 24.2599C71.3272 24.5313 71.2897 24.756 71.2897 24.9338V26.5998C71.2897 27.3205 71.5144 27.9382 71.9543 28.4342C72.3942 28.9303 72.9745 29.183 73.6858 29.183C74.5188 29.183 75.1739 28.8554 75.6326 28.219C76.1099 27.5732 76.3345 26.7308 76.3345 25.6732ZM90.1868 29.698C91.0011 28.9586 91.4129 28.004 91.4129 26.8247C91.4129 25.87 91.1321 25.0651 90.5612 24.4193C89.9996 23.7735 89.1292 23.2119 87.9405 22.7346C86.9671 22.3508 86.2932 21.9952 85.9282 21.6676C85.507 21.3213 85.2918 20.8627 85.2918 20.3198C85.2918 19.8237 85.479 19.4119 85.844 19.0656C86.2839 18.6912 86.9016 18.4947 87.6784 18.4947C88.6705 18.4947 89.5503 18.71 90.3365 19.1311L90.8981 17.3341C90.0651 16.8942 89.0168 16.6789 87.7627 16.6789C86.3494 16.6789 85.2169 17.044 84.3652 17.7647C83.5135 18.4947 83.0829 19.4213 83.0829 20.5538C83.0829 22.2853 84.2903 23.605 86.7331 24.5129C87.6223 24.8404 88.2587 25.1961 88.6425 25.5798C89.0168 25.9636 89.2134 26.4316 89.2134 26.9931C89.2134 27.6202 88.9794 28.1256 88.5114 28.5C88.0528 28.8744 87.3977 29.0616 86.5647 29.0616C85.4041 29.0616 84.3371 28.7714 83.3637 28.2005L82.8489 30.0443C83.7474 30.6153 84.9361 30.9054 86.4243 30.9054C88.0341 30.9054 89.2883 30.503 90.1868 29.698ZM98.7504 22.3975H96.3076V27.2364C96.3076 28.4625 96.7381 29.0802 97.5992 29.0802C97.9923 29.0802 98.3199 29.0427 98.582 28.9772L98.6475 30.6619C98.2076 30.8211 97.6367 30.9053 96.9253 30.9053C96.0455 30.9053 95.3717 30.6339 94.8756 30.1004C94.3795 29.5669 94.1362 28.6684 94.1362 27.4142V22.3881H92.6855V20.7315H94.1362V18.9064L96.3076 18.2512V20.7315H98.7504V22.3975ZM108.428 29.4078C109.299 28.425 109.739 27.1708 109.739 25.6359C109.739 24.1477 109.318 22.931 108.466 21.995C107.577 21.0216 106.397 20.5349 104.937 20.5349C103.421 20.5349 102.214 21.031 101.315 22.0137C100.426 22.9965 99.9768 24.26 99.9768 25.8043C99.9768 27.2831 100.407 28.5092 101.278 29.4733C102.148 30.4373 103.318 30.924 104.778 30.924C106.294 30.924 107.511 30.4186 108.428 29.4078ZM107.446 25.6826C107.446 24.7654 107.249 23.9886 106.856 23.3334C106.388 22.5379 105.723 22.1448 104.862 22.1448C103.973 22.1448 103.29 22.5379 102.831 23.3334C102.429 23.9886 102.242 24.7841 102.242 25.7294C102.242 26.6467 102.438 27.4329 102.831 28.0787C103.309 28.8742 103.983 29.2673 104.844 29.2673C105.686 29.2673 106.351 28.8649 106.837 28.06C107.24 27.3861 107.446 26.5999 107.446 25.6826ZM116.244 22.622C116.496 22.622 116.73 22.6407 116.946 22.6781L116.936 20.5629C116.777 20.5442 116.59 20.5254 116.384 20.5254C115.813 20.5254 115.28 20.7033 114.784 21.0589C114.278 21.452 113.913 21.9855 113.679 22.6407H113.614L113.529 20.7313H111.601C111.648 21.6673 111.667 22.7156 111.667 23.8668V30.6992H113.885V25.4673C113.885 24.6811 114.072 24.0165 114.437 23.5018C114.858 22.9121 115.467 22.622 116.244 22.622ZM126.848 25.2429C126.848 25.636 126.82 25.973 126.764 26.2444H120.118C120.147 27.2271 120.465 27.9853 121.082 28.5C121.644 28.9586 122.365 29.1926 123.254 29.1926C124.237 29.1926 125.135 29.0335 125.94 28.7247L126.286 30.2596C125.341 30.6714 124.227 30.8773 122.945 30.8773C121.401 30.8773 120.184 30.4187 119.304 29.5109C118.424 28.603 117.984 27.3769 117.984 25.8513C117.984 24.3538 118.396 23.0996 119.22 22.0981C120.081 21.0311 121.242 20.4976 122.702 20.4976C124.134 20.4976 125.229 21.0311 125.959 22.0981C126.548 22.9592 126.848 23.9981 126.848 25.2429ZM124.302 22.9685C124.602 23.4458 124.751 24.0168 124.733 24.6719L120.128 24.6626C120.193 23.998 120.418 23.4177 120.783 22.9404C121.232 22.3414 121.822 22.0419 122.543 22.0419C123.329 22.0419 123.918 22.3508 124.302 22.9685Z" fill="#1B1B1B"/>
</svg>