<svg xmlns="http://www.w3.org/2000/svg" width="140" height="49" viewBox="0 0 140 49" fill="none">
  <path d="M6.61571 1H133.624C136.722 1 139.24 3.51771 139.24 6.61571V42.1819C139.24 45.2799 136.722 47.7976 133.624 47.7976H6.61571C3.51771 47.7976 1 45.2799 1 42.1819V6.61571C1 3.51771 3.51771 1 6.61571 1Z" fill="white" stroke="white" stroke-opacity="0.200093" stroke-width="1.33333"/>
  <path fill-rule="evenodd" clip-rule="evenodd" d="M47.0441 23.0788V24.9551H51.5446C51.4134 26.0179 51.0591 26.7921 50.5212 27.33C49.8651 27.9861 48.8417 28.7078 47.0441 28.7078C44.2756 28.7078 42.1106 26.4772 42.1106 23.7086C42.1106 20.9401 44.2756 18.7095 47.0441 18.7095C48.5399 18.7095 49.6289 19.2999 50.4425 20.0479L51.7677 18.7226C50.6393 17.6467 49.1435 16.8201 47.0441 16.8201C43.2521 16.8201 40.0506 19.9166 40.0506 23.7086C40.0506 27.5006 43.239 30.5972 47.0441 30.5972C49.091 30.5972 50.6393 29.928 51.8464 28.6684C53.0929 27.4219 53.4734 25.6768 53.4734 24.2728C53.4734 23.8398 53.4341 23.4331 53.3685 23.0919L47.0441 23.0788ZM58.6037 21.7273C56.15 21.7273 54.1556 23.5905 54.1556 26.1622C54.1556 28.7208 56.15 30.5972 58.6037 30.5972C61.0573 30.5972 63.0517 28.7208 63.0517 26.1622C63.0517 23.6036 61.0573 21.7273 58.6037 21.7273ZM63.8653 26.1622C63.8653 23.5905 65.8597 21.7273 68.3134 21.7273C70.767 21.7273 72.7614 23.6036 72.7614 26.1622C72.7614 28.7208 70.767 30.5972 68.3134 30.5972C65.8597 30.5972 63.8653 28.7208 63.8653 26.1622ZM65.8072 26.1621C65.8072 27.7366 66.975 28.8519 68.3134 28.8519C69.6517 28.8519 70.8064 27.7366 70.8195 26.1621C70.8195 24.5613 69.6648 23.4723 68.3134 23.4723C66.9619 23.4723 65.8072 24.5613 65.8072 26.1621ZM80.2272 22.7245H80.1616C79.7286 22.1997 78.8888 21.7273 77.826 21.7273C75.6086 21.7273 73.5748 23.6824 73.5748 26.1754C73.5748 28.6552 75.6086 30.5972 77.826 30.5972C78.8888 30.5972 79.7286 30.1248 80.1616 29.5868H80.2272V30.2298C80.2272 31.9224 79.3218 32.8277 77.8654 32.8277C76.6714 32.8277 75.9366 31.9749 75.6348 31.2532L73.9422 31.9618C74.4277 33.1426 75.7267 34.586 77.8785 34.586C80.1616 34.586 82.0904 33.2476 82.0904 29.9673V22.0029H80.2403L80.2272 22.7245ZM75.5298 26.1752C75.5298 27.7235 76.6582 28.8519 77.9965 28.8519C79.3217 28.8519 80.3583 27.7366 80.3583 26.1752C80.3583 24.6138 79.3217 23.4723 77.9965 23.4723C76.6582 23.4723 75.5298 24.6138 75.5298 26.1752ZM56.0975 26.1621C56.0975 27.7366 57.2653 28.8519 58.6037 28.8519C59.942 28.8519 61.0967 27.7366 61.1098 26.1621C61.1098 24.5613 59.942 23.4723 58.6037 23.4723C57.2522 23.4723 56.0975 24.5613 56.0975 26.1621ZM90.4878 21.7404C92.784 21.7404 93.9124 23.5642 94.2798 24.5614L94.4898 25.06L88.559 27.5137C89.0183 28.3928 89.7268 28.852 90.7109 28.852C91.695 28.852 92.3904 28.3665 92.889 27.6317L94.3979 28.6421C93.9124 29.3637 92.7315 30.6102 90.6978 30.6102C88.1785 30.6102 86.3022 28.6552 86.3022 26.1753C86.3022 23.538 88.2048 21.7404 90.4878 21.7404ZM88.2441 26.0308C88.1916 24.3119 89.5694 23.4459 90.5666 23.4459C91.3407 23.4459 91.9968 23.8264 92.2067 24.3906L88.2441 26.0308ZM85.3575 30.3347H83.4156V17.3055H85.3575V30.3347ZM103.412 17.3055H98.7541V30.3347H100.696V25.4012H103.412C105.564 25.4012 107.69 23.8398 107.69 21.3468C107.69 18.8669 105.564 17.3055 103.412 17.3055ZM100.696 23.5644H103.465C104.921 23.5644 105.748 22.3572 105.748 21.3338C105.748 20.3103 104.921 19.1032 103.465 19.1032H100.696V23.5644ZM108.765 30.3347H110.707V17.3055H108.765V30.3347ZM112.007 23.6956C112.61 22.3179 114.08 21.7012 115.484 21.7012C117.714 21.7012 119.446 23.0002 119.433 25.3095V30.3086H117.557V29.2983H117.491C117.045 29.9806 116.323 30.571 115.011 30.571C113.292 30.571 111.77 29.4557 111.77 27.7106C111.77 25.795 113.66 24.7715 115.523 24.7715C116.455 24.7715 117.202 25.0733 117.557 25.2701V25.1389C117.544 24.063 116.52 23.4594 115.51 23.4594C114.788 23.4594 114.106 23.6956 113.738 24.4172L112.007 23.6956ZM115.247 28.8521C114.604 28.8521 113.725 28.5372 113.725 27.75C113.725 26.7396 114.827 26.3591 115.785 26.3591C116.638 26.3591 117.045 26.5428 117.557 26.7921C117.412 27.9993 116.376 28.8521 115.247 28.8521ZM124.052 27.6447L126.282 21.9896V22.0027H128.447L123.094 34.2971H121.06L123.041 29.8884L119.577 21.9896H121.677L123.986 27.6447H124.052Z" fill="#090909"/>
  <path d="M13.4543 12.8444C13.1918 13.1199 13.0344 13.5529 13.0344 14.104V33.9561C13.0344 34.5072 13.1918 34.9402 13.4543 35.2158L13.5199 35.2814L24.6465 24.1547V23.8923L13.5199 12.7656L13.4543 12.8444Z" fill="url(#paint0_linear_2005_2063)"/>
  <path d="M28.3467 27.8679L24.6465 24.1546V23.8922L28.3598 20.179L28.4385 20.2314L32.8341 22.7244C34.0937 23.433 34.0937 24.6008 32.8341 25.3224L28.4385 27.8154L28.3467 27.8679Z" fill="url(#paint1_linear_2005_2063)"/>
  <path d="M28.4384 27.8157L24.6464 24.0237L13.4541 35.216C13.8609 35.6489 14.5563 35.7146 15.3173 35.2684L28.4384 27.8157Z" fill="url(#paint2_linear_2005_2063)"/>
  <path d="M28.4384 20.2446L15.3173 12.7919C14.5432 12.3589 13.8609 12.4114 13.4541 12.8444L24.6464 24.0366L28.4384 20.2446Z" fill="url(#paint3_linear_2005_2063)"/>
  <path opacity="0.2" d="M28.3465 27.7366L15.3173 35.1369C14.5825 35.5567 13.9396 35.5305 13.5197 35.15L13.4541 35.2156L13.5197 35.2812C13.9396 35.6617 14.5957 35.6879 15.3173 35.2681L28.4384 27.8153L28.3465 27.7366Z" fill="black"/>
  <path opacity="0.12" fill-rule="evenodd" clip-rule="evenodd" d="M28.3467 27.7369L32.821 25.1915C33.3983 24.8634 33.7132 24.4567 33.7657 24.0237C33.7657 24.496 33.4508 24.9684 32.821 25.3227L28.4254 27.8157L28.3467 27.7369ZM13.0344 33.8251C13.0344 34.3762 13.1918 34.8092 13.4543 35.0847L13.5199 35.1503L13.4543 35.2159C13.1918 34.9404 13.0344 34.5074 13.0344 33.9563V33.8251Z" fill="black"/>
  <path opacity="0.25" d="M15.3174 12.9101L32.8209 22.8559C33.3851 23.1839 33.7131 23.5907 33.7656 24.0237C33.7656 23.5513 33.4507 23.079 32.8209 22.7247L15.3174 12.7789C14.0577 12.0704 13.0343 12.6608 13.0343 14.091V14.2222C13.0343 12.792 14.0577 12.2016 15.3174 12.9101Z" fill="#090909"/>
  <defs>
    <linearGradient id="paint0_linear_2005_2063" x1="19.7633" y1="-0.720141" x2="1.94806" y2="4.01839" gradientUnits="userSpaceOnUse">
      <stop stop-color="#00A0FF"/>
      <stop offset="0.007" stop-color="#00A1FF"/>
      <stop offset="0.26" stop-color="#00BEFF"/>
      <stop offset="0.512" stop-color="#00D2FF"/>
      <stop offset="0.76" stop-color="#00DFFF"/>
      <stop offset="1" stop-color="#00E3FF"/>
    </linearGradient>
    <linearGradient id="paint1_linear_2005_2063" x1="34.4582" y1="14.8844" x2="12.7335" y2="14.8844" gradientUnits="userSpaceOnUse">
      <stop stop-color="#FFE000"/>
      <stop offset="0.409" stop-color="#FFBD00"/>
      <stop offset="0.775" stop-color="#FFA500"/>
      <stop offset="1" stop-color="#FF9C00"/>
    </linearGradient>
    <linearGradient id="paint2_linear_2005_2063" x1="13.1196" y1="18.2196" x2="-1.18352" y2="42.2944" gradientUnits="userSpaceOnUse">
      <stop stop-color="#FF3A44"/>
      <stop offset="1" stop-color="#C31162"/>
    </linearGradient>
    <linearGradient id="paint3_linear_2005_2063" x1="4.71425" y1="9.74225" x2="11.0963" y2="20.4942" gradientUnits="userSpaceOnUse">
      <stop stop-color="#32A071"/>
      <stop offset="0.069" stop-color="#2DA771"/>
      <stop offset="0.476" stop-color="#15CF74"/>
      <stop offset="0.801" stop-color="#06E775"/>
      <stop offset="1" stop-color="#00F076"/>
    </linearGradient>
  </defs>
</svg>