<svg width="24" height="42" viewBox="0 0 24 42" fill="none" xmlns="http://www.w3.org/2000/svg">
<path d="M4.13122 0.655182C4.83653 0.886015 5.33475 1.4093 5.83997 1.93677C11.3774 7.72743 16.9188 13.515 22.4673 19.2952C23.1486 20.0044 23.4667 20.8107 23.1556 21.7811C23.0395 22.1435 22.8094 22.5007 22.5483 22.7733C16.8078 28.7854 11.0593 34.7881 5.30473 40.7866C4.33831 41.7946 3.08676 41.7904 2.11133 40.8033C1.65412 40.3406 1.19092 39.88 0.778739 39.3745C0.0844329 38.5222 0.119448 37.3409 0.819757 36.4896C0.927804 36.359 1.04486 36.2358 1.16191 36.1136C5.83897 31.2306 10.515 26.3465 15.1941 21.4656C15.3021 21.3528 15.4292 21.262 15.6323 20.981C15.4972 20.9047 15.3362 20.8556 15.2321 20.747C10.507 15.8222 5.78494 10.8912 1.06386 5.96015C0.183476 5.03996 0.00739893 3.77194 0.732718 2.91128C1.47104 2.03287 2.16535 1.06984 3.28984 0.655182L4.13122 0.655182Z" fill="#00ACC1"/>
</svg>
