<svg xmlns="http://www.w3.org/2000/svg" width="48" height="48" viewBox="0 0 48 48" fill="none">
  <path d="M24 0L23.3286 0.0092261C10.3906 0.365192 0 10.9765 0 24C0 37.224 10.752 48 24 48C37.224 48 48 37.224 48 24C48 10.752 37.224 0 24 0ZM19.248 14.4C19.968 13.68 21.096 13.68 21.792 14.4L30.168 22.728C30.504 23.064 30.696 23.52 30.696 24C30.696 24.48 30.504 24.936 30.168 25.272L21.792 33.6C21.456 33.96 21 34.128 20.544 34.128C20.064 34.128 19.608 33.96 19.248 33.6C18.552 32.88 18.552 31.752 19.272 31.056L26.352 24L19.272 16.944C18.552 16.248 18.552 15.096 19.248 14.4Z" fill="#1505CC"/>
</svg>