<svg xmlns="http://www.w3.org/2000/svg" width="13" height="13" viewBox="0 0 13 13" fill="none">
  <path fill-rule="evenodd" clip-rule="evenodd" d="M11.6871 5.95804L7.85056 2.12155C7.71245 1.97576 7.52062 1.89136 7.30578 1.89136C6.88377 1.89136 6.53848 2.23664 6.53848 2.65866C6.53848 2.8735 6.62288 3.06533 6.761 3.20344L9.28541 5.72785H1.93469C1.51267 5.72785 1.16739 6.07314 1.16739 6.49515C1.16739 6.91717 1.51267 7.26245 1.93469 7.26245H9.29309L6.76867 9.78687C6.63056 9.92498 6.54615 10.1168 6.54615 10.3316C6.54615 10.7537 6.89144 11.0989 7.31345 11.0989C7.5283 11.0989 7.72012 11.0145 7.85824 10.8764L11.6947 7.03993C11.8328 6.90182 11.9172 6.71 11.9172 6.49515C11.9172 6.28031 11.8252 6.09616 11.6871 5.95804Z" fill="#3A6AD5"/>
</svg>