<svg width="24" height="25" viewBox="0 0 24 25" fill="none" xmlns="http://www.w3.org/2000/svg">
<g clip-path="url(#clip0_2142_2750)">
<path d="M21 18.5233C21 19.0113 20.6043 19.407 20.1163 19.407H3.88372C3.39565 19.407 3 19.0113 3 18.5233C3 18.0352 3.39566 17.6395 3.88372 17.6395H3.9V11.4809C3.9 7.07288 7.527 3.5 12 3.5C16.473 3.5 20.1 7.07288 20.1 11.4809V17.6395H20.1163C20.6043 17.6395 21 18.0352 21 18.5233ZM5.7 17.6395H18.3V11.4809C18.3 8.0494 15.4794 5.26744 12 5.26744C8.5206 5.26744 5.7 8.0494 5.7 11.4809V17.6395ZM9.97604 21.2558C9.73121 20.7608 10.1977 20.2907 10.75 20.2907H13.25C13.8023 20.2907 14.2688 20.7608 14.024 21.2558C13.9155 21.4751 13.7699 21.6773 13.591 21.8529C13.169 22.2672 12.5967 22.5 12 22.5C11.4033 22.5 10.831 22.2672 10.409 21.8529C10.2301 21.6773 10.0845 21.4751 9.97604 21.2558Z" fill="#777E91"/>
</g>
<defs>
<clipPath id="clip0_2142_2750">
<rect width="24" height="24" fill="white" transform="translate(0 0.5)"/>
</clipPath>
</defs>
</svg>
