<svg xmlns="http://www.w3.org/2000/svg" width="30" height="30" viewBox="0 0 30 30" fill="none">
  <g clip-path="url(#clip0_2069_2567)">
    <path d="M23.8307 0.481445H6.16934C2.76738 0.481445 0 3.34302 0 6.86076C0 10.3785 2.79609 13.2401 6.13242 13.2401H8.90332V8.24217C8.90332 6.00405 10.6646 4.18277 12.8291 4.18277H12.8379C14.9982 4.18762 16.7555 6.00889 16.7555 8.24217V13.2401H23.8312C27.2332 13.2401 30.0006 10.3785 30.0006 6.86076C30.0006 3.34302 27.2326 0.481445 23.8307 0.481445ZM25.5768 5.97133L22.0611 9.60661C21.7178 9.96166 21.1611 9.96166 20.8184 9.60661L19.0605 7.78897C18.7172 7.43393 18.7172 6.85894 19.0605 6.5039C19.4039 6.14885 19.9605 6.14885 20.3033 6.5039L21.4395 7.6787L24.3334 4.68626C24.6768 4.33121 25.2334 4.33121 25.5762 4.68626C25.9195 5.0413 25.9195 5.61689 25.5762 5.97133H25.5768Z" fill="white"/>
    <path d="M20.6549 15.7977L14.9971 15.1894V8.24176C14.9971 7.00577 14.0291 6.00243 12.8338 6C11.635 5.99758 10.6611 7.00152 10.6611 8.24176V19.8698H10.6412L8.50137 18.0219C7.59902 17.2427 6.25195 17.3887 5.52539 18.3448C4.82871 19.2615 4.96289 20.5854 5.82891 21.3324L10.1725 25.0804H22.9658V18.503C22.9658 17.1276 21.975 15.9673 20.6549 15.7977Z" fill="white"/>
    <path d="M10.6611 28.7151C10.6611 29.2168 11.0549 29.6239 11.54 29.6239H22.0869C22.5721 29.6239 22.9658 29.2168 22.9658 28.7151V26.8975H10.6611V28.7151Z" fill="white"/>
  </g>
  <defs>
    <clipPath id="clip0_2069_2567">
      <rect width="30" height="29.1429" fill="white" transform="translate(0 0.481445)"/>
    </clipPath>
  </defs>
</svg>