<svg xmlns="http://www.w3.org/2000/svg" width="25" height="22" viewBox="0 0 25 22" fill="none">
  <path d="M19.1912 0.453125H13.5662C10.8526 0.453125 8.64437 2.66136 8.64437 5.375C8.64437 7.85037 10.4812 9.90481 12.8631 10.2468V12.4062C12.8631 12.6905 13.0341 12.9473 13.2971 13.0558C13.5564 13.164 13.8607 13.106 14.0634 12.9034L16.6699 10.2969H19.1912C21.9049 10.2969 24.16 8.08864 24.16 5.375C24.16 2.66136 21.9049 0.453125 19.1912 0.453125ZM13.5662 6.07803C13.1778 6.07803 12.8631 5.76322 12.8631 5.37491C12.8631 4.98659 13.1778 4.67178 13.5662 4.67178C13.9546 4.67178 14.2694 4.98659 14.2694 5.37491C14.2694 5.76322 13.9546 6.07803 13.5662 6.07803ZM16.3787 6.07803C15.9903 6.07803 15.6756 5.76322 15.6756 5.37491C15.6756 4.98659 15.9903 4.67178 16.3787 4.67178C16.7671 4.67178 17.0819 4.98659 17.0819 5.37491C17.0819 5.76322 16.7671 6.07803 16.3787 6.07803ZM19.1912 6.07803C18.8028 6.07803 18.4881 5.76322 18.4881 5.37491C18.4881 4.98659 18.8028 4.67178 19.1912 4.67178C19.5796 4.67178 19.8944 4.98659 19.8944 5.37491C19.8944 5.76322 19.5796 6.07803 19.1912 6.07803Z" fill="#474747" fill-opacity="0.74"/>
  <path d="M15.9569 21.5468C17.12 21.5468 18.0663 20.6006 18.0663 19.4375V16.625C18.0663 16.3222 17.8726 16.0537 17.5856 15.9582L13.3767 14.552C13.1707 14.4826 12.9455 14.5142 12.7643 14.6337L10.9749 15.8264C9.07971 14.9228 6.83097 12.674 5.92732 10.7788L7.12 8.98941C7.24014 8.8088 7.27038 8.58291 7.20171 8.37694L5.79546 4.16808C5.70007 3.88111 5.43157 3.68747 5.12875 3.68747H2.26938C1.10622 3.68747 0.160004 4.6238 0.160004 5.78695C0.160004 13.888 7.85585 21.5468 15.9569 21.5468Z" fill="#474747" fill-opacity="0.74"/>
</svg>