<svg xmlns="http://www.w3.org/2000/svg" width="26" height="26" viewBox="0 0 24 24" fill="none">
  <circle cx="12" cy="12" r="12" fill="#D9D9D9"/>
  <path d="M6.8678 7.22054H8.86165L10.1909 5.90771H14.1786L15.5078 7.22054H17.5016C17.8542 7.22054 18.1923 7.35885 18.4416 7.60505C18.6908 7.85125 18.8309 8.18517 18.8309 8.53336V16.4103C18.8309 16.7585 18.6908 17.0924 18.4416 17.3386C18.1923 17.5848 17.8542 17.7231 17.5016 17.7231H6.8678C6.51527 17.7231 6.17718 17.5848 5.9279 17.3386C5.67862 17.0924 5.53857 16.7585 5.53857 16.4103V8.53336C5.53857 8.18517 5.67862 7.85125 5.9279 7.60505C6.17718 7.35885 6.51527 7.22054 6.8678 7.22054ZM12.1847 9.18977C11.3034 9.18977 10.4582 9.53555 9.83496 10.1511C9.21176 10.7666 8.86165 11.6014 8.86165 12.4718C8.86165 13.3423 9.21176 14.1771 9.83496 14.7926C10.4582 15.4081 11.3034 15.7539 12.1847 15.7539C13.0661 15.7539 13.9113 15.4081 14.5345 14.7926C15.1577 14.1771 15.5078 13.3423 15.5078 12.4718C15.5078 11.6014 15.1577 10.7666 14.5345 10.1511C13.9113 9.53555 13.0661 9.18977 12.1847 9.18977ZM12.1847 10.5026C12.7135 10.5026 13.2207 10.7101 13.5946 11.0794C13.9685 11.4487 14.1786 11.9495 14.1786 12.4718C14.1786 12.9941 13.9685 13.495 13.5946 13.8643C13.2207 14.2336 12.7135 14.441 12.1847 14.441C11.6559 14.441 11.1488 14.2336 10.7749 13.8643C10.4009 13.495 10.1909 12.9941 10.1909 12.4718C10.1909 11.9495 10.4009 11.4487 10.7749 11.0794C11.1488 10.7101 11.6559 10.5026 12.1847 10.5026Z" fill="#545454"/>
</svg>