<?xml version="1.0" encoding="iso-8859-1"?>
<!-- Uploaded to: SVG Repo, www.svgrepo.com, Generator: SVG Repo Mixer Tools -->
<!DOCTYPE svg PUBLIC "-//W3C//DTD SVG 1.1//EN" "http://www.w3.org/Graphics/SVG/1.1/DTD/svg11.dtd">
<svg fill="#000000" height="800px" width="800px" version="1.1" id="Capa_1" xmlns="http://www.w3.org/2000/svg" xmlns:xlink="http://www.w3.org/1999/xlink" 
	 viewBox="0 0 512 512" xml:space="preserve">
<g>
	<path d="M328,256c0-39.701-32.299-72-72-72s-72,32.299-72,72s32.299,72,72,72S328,295.701,328,256z M256,312
		c-30.878,0-56-25.122-56-56s25.122-56,56-56s56,25.122,56,56S286.878,312,256,312z"/>
	<path d="M437.019,74.98C388.667,26.628,324.38,0,256,0C187.62,0,123.333,26.628,74.98,74.98S0,187.62,0,256
		c0,68.38,26.628,132.667,74.98,181.019S187.62,512,256,512c68.38,0,132.667-26.629,181.019-74.981S512,324.38,512,256
		C512,187.62,485.371,123.333,437.019,74.98z M425.706,425.706C380.375,471.036,320.106,496,256,496
		c-64.106,0-124.375-24.964-169.706-70.294S16,320.106,16,256S40.964,131.624,86.294,86.294C131.624,40.964,191.894,16,256,16
		s124.375,24.964,169.706,70.294S496,191.894,496,256C496,320.106,471.036,380.375,425.706,425.706z"/>
	<path d="M460.42,315.292c-1.505-2.069-3.91-3.292-6.468-3.292H448c-4.411,0-8-3.589-8-8v-96c0-4.411,3.589-8,8-8h5.952
		c2.559,0,4.963-1.224,6.468-3.292c1.505-2.068,1.931-4.732,1.145-7.167c-13.932-43.12-40.644-80.226-77.25-107.306
		C346.964,54.604,302.593,40,256,40s-90.964,14.604-128.314,42.234c-36.606,27.08-63.319,64.186-77.25,107.306
		c-0.786,2.435-0.361,5.099,1.145,7.167c1.505,2.069,3.91,3.292,6.468,3.292H64c4.411,0,8,3.589,8,8v96c0,4.411-3.589,8-8,8h-5.952
		c-2.559,0-4.963,1.224-6.468,3.292c-1.505,2.068-1.931,4.732-1.145,7.167c21.27,65.833,73.271,117.835,139.105,139.105
		c2.434,0.786,5.098,0.36,7.167-1.145c2.069-1.505,3.292-3.91,3.292-6.468V448c0-4.411,3.589-8,8-8h96c4.411,0,8,3.589,8,8v5.952
		c0,2.559,1.224,4.963,3.292,6.468c1.385,1.008,3.037,1.532,4.708,1.532c0.825,0,1.654-0.127,2.459-0.387
		c65.833-21.27,117.835-73.272,139.105-139.105C462.351,320.025,461.925,317.361,460.42,315.292z M69.146,184.556
		c13.617-35.705,36.988-66.476,68.055-89.458C171.777,69.52,212.857,56,256,56s84.223,13.52,118.798,39.098
		c31.067,22.982,54.438,53.753,68.055,89.458c-4.996,1.095-9.4,3.766-12.701,7.444h-92.178c-19.651-25.123-49.986-40-81.974-40
		s-62.323,14.877-81.974,40H81.847C78.546,188.321,74.143,185.651,69.146,184.556z M184.557,442.848
		c-52.982-20.271-95.134-62.422-115.404-115.404c4.993-1.097,9.395-3.766,12.694-7.443h86.202C181.255,320,192,330.742,192,343.946
		v86.207C188.323,433.453,185.653,437.854,184.557,442.848z M208,424v-80.054C208,321.919,190.078,304,168.048,304H88v-96h90.022
		c2.574,0,4.991-1.238,6.494-3.328C201.037,181.709,227.759,168,256,168s54.963,13.709,71.483,36.672
		c1.503,2.089,3.92,3.328,6.494,3.328H424v96h-80.048C321.923,304,304,321.919,304,343.946V424h0H208z M327.443,442.848
		c-1.097-4.993-3.766-9.394-7.443-12.694v-86.208C320,330.742,330.745,320,343.952,320h86.201c3.3,3.677,7.701,6.347,12.695,7.443
		C422.577,380.425,380.425,422.577,327.443,442.848z"/>
	<path d="M120,248h-16c-4.418,0-8,3.582-8,8s3.582,8,8,8h16c4.418,0,8-3.582,8-8S124.418,248,120,248z"/>
	<path d="M168,248h-16c-4.418,0-8,3.582-8,8s3.582,8,8,8h16c4.418,0,8-3.582,8-8S172.418,248,168,248z"/>
	<path d="M136,264c-4.418,0-8,3.582-8,8v16c0,4.418,3.582,8,8,8s8-3.582,8-8v-16C144,267.582,140.418,264,136,264z"/>
	<path d="M136,248c4.418,0,8-3.582,8-8v-16c0-4.418-3.582-8-8-8s-8,3.582-8,8v16C128,244.418,131.582,248,136,248z"/>
	<path d="M376,296c6.617,0,12-5.383,12-12s-5.383-12-12-12s-12,5.383-12,12S369.383,296,376,296z"/>
	<path d="M376,240c6.617,0,12-5.383,12-12s-5.383-12-12-12s-12,5.383-12,12S369.383,240,376,240z"/>
	<path d="M404,268c6.617,0,12-5.383,12-12s-5.383-12-12-12s-12,5.383-12,12S397.383,268,404,268z"/>
	<path d="M348,268c6.617,0,12-5.383,12-12s-5.383-12-12-12s-12,5.383-12,12S341.383,268,348,268z"/>
	<path d="M240,344h-16c-4.418,0-8,3.582-8,8s3.582,8,8,8h16c4.418,0,8-3.582,8-8S244.418,344,240,344z"/>
	<path d="M288,344h-16c-4.418,0-8,3.582-8,8s3.582,8,8,8h16c4.418,0,8-3.582,8-8S292.418,344,288,344z"/>
	<path d="M256,216c-4.418,0-8,3.582-8,8s3.582,8,8,8c13.234,0,24,10.766,24,24c0,4.418,3.582,8,8,8s8-3.582,8-8
		C296,233.944,278.056,216,256,216z"/>
</g>
</svg>