<svg xmlns="http://www.w3.org/2000/svg" width="53" height="24" viewBox="0 0 53 24" fill="none">
  <path d="M13.0709 15.794H11.0743C9.82634 15.794 8.828 14.7957 8.828 13.5478V10.0536C8.828 8.55608 10.0759 7.30815 11.4486 7.30815H13.5701C15.3172 7.30815 17.5635 4.43793 19.5602 4.43793H31.1658C32.1642 4.43793 36.6567 7.18336 37.7798 7.80732C37.7798 7.80732 40.8997 8.05691 43.2707 8.43128C45.8913 8.93045 48.7616 9.804 48.7616 11.8007V14.5461C48.7616 15.4197 48.0128 16.6676 45.6418 16.6676" stroke="#111111" stroke-width="1.87189" stroke-miterlimit="10" stroke-linecap="round" stroke-linejoin="round"/>
  <path d="M17.6883 19.4128C19.3424 19.4128 20.6833 18.0161 20.6833 16.293C20.6833 14.57 19.3424 13.1732 17.6883 13.1732C16.0342 13.1732 14.6933 14.57 14.6933 16.293C14.6933 18.0161 16.0342 19.4128 17.6883 19.4128Z" stroke="#111111" stroke-width="1.87189" stroke-miterlimit="10" stroke-linecap="round" stroke-linejoin="round"/>
  <path d="M40.8997 19.4128C42.5538 19.4128 43.8947 18.0161 43.8947 16.293C43.8947 14.57 42.5538 13.1732 40.8997 13.1732C39.2456 13.1732 37.9046 14.57 37.9046 16.293C37.9046 18.0161 39.2456 19.4128 40.8997 19.4128Z" stroke="#111111" stroke-width="1.87189" stroke-miterlimit="10" stroke-linecap="round" stroke-linejoin="round"/>
  <path d="M23.0544 17.9156H36.0328" stroke="#111111" stroke-width="1.87189" stroke-miterlimit="10" stroke-linecap="round" stroke-linejoin="round"/>
</svg>