<svg xmlns="http://www.w3.org/2000/svg" width="30" height="32" viewBox="0 0 30 32" fill="none">
  <g clip-path="url(#clip0_1702_5793)">
    <path d="M15.9846 0.347635L18.6893 2.52663C18.9893 2.76848 19.3679 2.89116 19.7527 2.87202L23.2215 2.69893C23.9591 2.6622 24.6225 3.14434 24.8155 3.857L25.723 7.20969C25.8238 7.58164 26.0574 7.90359 26.3801 8.11418L29.2883 10.0134C29.9064 10.417 30.1599 11.1973 29.897 11.8873L28.6605 15.1333C28.5234 15.4935 28.5234 15.8913 28.6605 16.2515L29.897 19.4975C30.1599 20.1875 29.9064 20.9678 29.2883 21.3714L26.3801 23.2706C26.0574 23.4812 25.8238 23.8032 25.723 24.1751L24.8155 27.5278C24.6225 28.2405 23.9591 28.7226 23.2215 28.6859L19.7527 28.5128C19.3679 28.4937 18.9893 28.6167 18.6893 28.8582L15.9846 31.0372C15.4096 31.5006 14.5895 31.5006 14.0145 31.0372L11.3098 28.8582C11.0098 28.6163 10.6312 28.4937 10.2464 28.5128L6.77758 28.6859C6.03998 28.7226 5.37661 28.2405 5.18362 27.5278L4.27608 24.1751C4.17529 23.8032 3.94166 23.4812 3.61896 23.2706L0.710772 21.3714C0.0923319 20.9678 -0.160826 20.1875 0.102099 19.4975L1.33859 16.2515C1.47572 15.8913 1.47572 15.4935 1.33859 15.1333L0.10288 11.8877C-0.160045 11.1977 0.0935039 10.4174 0.711553 10.0138L3.61974 8.11457C3.94244 7.90398 4.17607 7.58203 4.27686 7.21008L5.1844 3.85739C5.3774 3.14473 6.04076 2.6626 6.77836 2.69932L10.2472 2.87241C10.632 2.89155 11.0105 2.76848 11.3106 2.52702L14.0152 0.348025C14.5903 -0.115357 15.4103 -0.115357 15.9854 0.348025L15.9846 0.347635Z" fill="#0099F8"/>
    <path d="M21.2973 10.3467C20.8015 9.93291 20.0616 9.99972 19.6479 10.4951L13.2361 18.1773L10.2963 15.1317C10.0669 14.8942 9.76026 14.7746 9.45358 14.7746C9.1469 14.7746 8.86717 14.8836 8.64019 15.1028C8.17568 15.5513 8.16239 16.2945 8.61089 16.759L12.7821 21.0803C12.9322 21.2354 13.1334 21.3167 13.349 21.3088C13.5647 21.301 13.7596 21.2057 13.8979 21.04L15.0602 19.6479L21.4462 11.9966C21.8599 11.5008 21.7935 10.7608 21.2977 10.3471L21.2973 10.3467Z" fill="white"/>
  </g>
  <defs>
    <clipPath id="clip0_1702_5793">
      <rect width="30" height="31.3846" fill="white"/>
    </clipPath>
  </defs>
</svg>