<svg width="25" height="25" viewBox="0 0 25 25" fill="currentColor" xmlns="http://www.w3.org/2000/svg">
<g clip-path="url(#clip0_2993_3452)">
<path d="M1.29042 25.0001C0.961111 25.0001 0.631799 24.8748 0.381598 24.6227C-0.120689 24.1204 -0.120689 23.3061 0.381598 22.8038L22.8087 0.376715C23.311 -0.125572 24.1253 -0.125572 24.6276 0.376715C25.1299 0.879001 25.1299 1.69333 24.6276 2.19593L2.20082 24.6227C1.94873 24.8732 1.61942 25.0001 1.29042 25.0001Z" fill="#BABABA"/>
<path d="M23.7191 25.0001C23.3898 25.0001 23.0608 24.8748 22.8103 24.6227L0.381598 2.19593C-0.120689 1.69333 -0.120689 0.879002 0.381598 0.376715C0.883885 -0.125572 1.69822 -0.125572 2.20082 0.376715L24.6276 22.8038C25.1299 23.3061 25.1299 24.1204 24.6276 24.6227C24.3755 24.8732 24.0465 25.0001 23.7191 25.0001Z" fill="#BABABA"/>
</g>
<defs>
<clipPath id="clip0_2993_3452">
<rect width="25" height="25" fill="white"/>
</clipPath>
</defs>
</svg>
