<svg xmlns="http://www.w3.org/2000/svg" width="16" height="16" viewBox="0 0 16 16" fill="none">
  <g clip-path="url(#clip0_2005_2024)">
    <rect width="15.0589" height="14.9334" transform="translate(0.471313 0.199463)" fill="white"/>
    <path d="M15.5302 7.71102C15.5305 6.28402 15.1185 4.88682 14.3429 3.68485C13.5673 2.48288 12.4606 1.52649 11.1538 0.928913C9.84711 0.331336 8.39506 0.117606 6.96963 0.313029C5.5442 0.508452 4.20509 1.10484 3.11087 2.03159C2.01664 2.95833 1.21312 4.17661 0.795452 5.54217C0.377785 6.90773 0.363462 8.36339 0.75418 9.73677C1.1449 11.1102 1.92429 12.3438 3.00008 13.2915C4.07586 14.2392 5.40298 14.8614 6.82429 15.0844V9.86889H4.91275V7.71102H6.82429V6.06554C6.78313 5.68142 6.82767 5.29303 6.95476 4.92789C7.08185 4.56274 7.28837 4.22979 7.55969 3.95263C7.83101 3.67547 8.16049 3.46088 8.52476 3.32407C8.88904 3.18726 9.2792 3.13159 9.6676 3.16099C10.2323 3.16835 10.7957 3.21701 11.3533 3.30659V5.1462H10.4045C10.2429 5.12524 10.0786 5.14059 9.92383 5.19111C9.76901 5.24163 9.62762 5.32602 9.51014 5.43804C9.39266 5.55007 9.30208 5.68686 9.2451 5.83829C9.18813 5.98972 9.16623 6.15191 9.18101 6.31287V7.71288H11.2695L10.9354 9.87076H9.17724V15.0891C10.9488 14.8112 12.5621 13.9153 13.7267 12.5627C14.8914 11.2101 15.531 9.48963 15.5302 7.71102Z" fill="#FBB901"/>
  </g>
  <defs>
    <clipPath id="clip0_2005_2024">
      <rect width="15.0589" height="14.9334" fill="white" transform="translate(0.471313 0.199463)"/>
    </clipPath>
  </defs>
</svg>