<svg xmlns="http://www.w3.org/2000/svg" width="19" height="18" viewBox="0 0 19 18" fill="none">
  <path fill-rule="evenodd" clip-rule="evenodd" d="M5.00655 0.133606H13.1357C15.8966 0.133606 18.1426 2.32899 18.1425 5.02719V12.9728C18.1425 15.671 15.8966 17.8664 13.1357 17.8664H5.00655C2.24597 17.8664 0 15.6712 0 12.9728V5.02719C0 2.32899 2.24597 0.133606 5.00655 0.133606ZM13.1358 16.293C15.009 16.293 16.5329 14.8037 16.5329 12.9728H16.5328V5.02719C16.5328 3.1965 15.0089 1.70682 13.1357 1.70682H5.00655C3.13352 1.70682 1.60978 3.1965 1.60978 5.02719V12.9728C1.60978 14.8037 3.13352 16.2932 5.00655 16.293H13.1358ZM4.39639 9.00029C4.39639 6.48069 6.49347 4.43094 9.07131 4.43094C11.649 4.43094 13.7462 6.48069 13.7462 9.00029C13.7462 11.5197 11.649 13.5693 9.07131 13.5693C6.49347 13.5693 4.39639 11.5197 4.39639 9.00029ZM6.00606 9.0001C6.00606 10.652 7.38118 11.9959 9.07131 11.9959C10.7613 11.9959 12.1365 10.652 12.1365 9.0001C12.1365 7.34803 10.7614 6.00416 9.07131 6.00416C7.3811 6.00416 6.00606 7.34803 6.00606 9.0001ZM13.1084 3.4346C13.3273 3.21962 13.6321 3.09675 13.9423 3.09675C14.2533 3.09675 14.5582 3.21962 14.777 3.4346C14.9971 3.64844 15.1226 3.94637 15.1226 4.25066C15.1226 4.55381 14.9971 4.85155 14.777 5.06672C14.5571 5.28056 14.2533 5.40435 13.9423 5.40435C13.6321 5.40435 13.3273 5.28056 13.1084 5.06672C12.8883 4.85155 12.7617 4.55381 12.7617 4.25066C12.7617 3.94637 12.8883 3.64844 13.1084 3.4346Z" fill="#F7F6F6"/>
</svg>