<svg xmlns="http://www.w3.org/2000/svg" width="16" height="16" viewBox="0 0 16 16" fill="none">
  <g clip-path="url(#clip0_2005_2019)">
    <rect width="15.0589" height="14.9334" transform="translate(0.64801 0.133057)" fill="white"/>
    <path d="M12.0787 4.66164C12.5777 4.66164 12.9822 4.26048 12.9822 3.76563C12.9822 3.27078 12.5777 2.86963 12.0787 2.86963C11.5797 2.86963 11.1752 3.27078 11.1752 3.76563C11.1752 4.26048 11.5797 4.66164 12.0787 4.66164Z" fill="#FBB901"/>
    <path d="M8.17745 11.3332C6.1012 11.3332 4.41272 9.65876 4.41272 7.59981C4.41272 5.54086 6.1012 3.86646 8.17745 3.86646C10.2537 3.86646 11.9422 5.54086 11.9422 7.59981C11.9422 9.65876 10.2537 11.3332 8.17745 11.3332ZM8.17745 5.73313C7.13932 5.73313 6.29508 6.57034 6.29508 7.59981C6.29508 8.62928 7.13932 9.46649 8.17745 9.46649C9.21557 9.46649 10.0598 8.62928 10.0598 7.59981C10.0598 6.57034 9.21557 5.73313 8.17745 5.73313Z" fill="#FBB901"/>
    <path d="M11.9422 15.0665H4.41274C2.47767 15.0665 0.64801 13.2521 0.64801 11.3331V3.86641C0.64801 1.94747 2.47767 0.133057 4.41274 0.133057H11.9422C13.8773 0.133057 15.7069 1.94747 15.7069 3.86641V11.3331C15.7069 13.2521 13.8773 15.0665 11.9422 15.0665ZM4.41274 1.99973C3.53273 1.99973 2.53037 2.99374 2.53037 3.86641V11.3331C2.53037 12.2226 3.51579 13.1998 4.41274 13.1998H11.9422C12.8222 13.1998 13.8246 12.2058 13.8246 11.3331V3.86641C13.8246 2.99374 12.8222 1.99973 11.9422 1.99973H4.41274Z" fill="#FBB901"/>
  </g>
  <defs>
    <clipPath id="clip0_2005_2019">
      <rect width="15.0589" height="14.9334" fill="white" transform="translate(0.64801 0.133057)"/>
    </clipPath>
  </defs>
</svg>