<?xml version="1.0" ?><svg id="Layer_1" style="enable-background:new 0 0 512 512;" version="1.1" viewBox="0 0 512 512" xml:space="preserve" xmlns="http://www.w3.org/2000/svg" xmlns:xlink="http://www.w3.org/1999/xlink"><style type="text/css">
	.st0{fill:#5E91CC;}
	.st1{fill:#E4E9F7;}
	.st2{fill:#7AB3E2;}
	.st3{fill:#3F65AE;}
	.st4{fill:#C9D6EF;}
	.st5{opacity:0.2;fill:#424261;}
	.st6{opacity:0.21;fill:#E4E9F7;}
	.st7{fill:#FAFCFD;}
	.st8{fill:#7C6EB0;}
	.st9{fill:#A488BE;}
	.st10{fill:#6056A1;}
	.st11{fill:#CFD4ED;}
	.st12{fill:#CED2EB;}
	.st13{fill:#FCC141;}
	.st14{fill:#91C141;}
	.st15{fill:#E94F26;}
	.st16{fill:#FFFFFF;}
	.st17{fill:#E94B45;}
	.st18{fill:#4F4F9D;}
	.st19{fill:#3EC0F0;}
	.st20{fill:#EB5C9D;}
	.st21{fill:#FCC259;}
	.st22{fill:#CB62A2;}
	.st23{fill:#FEC702;}
	.st24{fill:#EA5073;}
	.st25{fill:#D8D8D8;}
	.st26{fill:url(#SVGID_1_);}
	.st27{fill:url(#SVGID_2_);}
	.st28{fill:url(#SVGID_3_);}
	.st29{fill:#F6AD86;}
	.st30{fill:url(#SVGID_4_);}
	.st31{fill:url(#SVGID_5_);}
	.st32{fill:url(#SVGID_6_);}
	.st33{fill:url(#SVGID_7_);}
	.st34{fill:url(#SVGID_8_);}
	.st35{fill:url(#SVGID_9_);}
	.st36{fill:url(#SVGID_10_);}
	.st37{fill:url(#SVGID_11_);}
	.st38{fill:url(#SVGID_12_);}
	.st39{fill:url(#SVGID_13_);}
	.st40{fill:#5CA7DD;}
	.st41{fill:url(#SVGID_14_);}
	.st42{fill:url(#SVGID_15_);}
	.st43{fill:url(#SVGID_16_);}
	.st44{fill:url(#SVGID_17_);}
	.st45{fill:url(#SVGID_18_);}
	.st46{fill:url(#SVGID_19_);}
	.st47{fill:url(#SVGID_20_);}
	.st48{fill:url(#SVGID_21_);}
	.st49{fill:url(#SVGID_22_);}
	.st50{fill:url(#SVGID_23_);}
	.st51{fill:url(#SVGID_24_);}
	.st52{fill:url(#SVGID_25_);}
	.st53{opacity:0.3;clip-path:url(#SVGID_27_);fill:url(#SVGID_28_);}
</style><g><path class="st0" d="M426.6,352.5c19.9-12.1,26.1-38.1,14-58c-2.7-4.4-6.1-8.1-10-11.2c5-7.1,10.8-14,17.3-20.5   c3-3,6.1-5.9,9.2-8.6c1.2,1.1,2.5,2.1,3.7,3.3l10.4-6.3c5.3-3.2,12.2-1.6,15.5,3.7l10.3,16.8c3.2,5.3,1.6,12.2-3.7,15.5l-10.4,6.3   c2.3,7.9,3.4,15.9,3.3,23.9l11.7,3.3c6,1.7,9.5,7.9,7.8,13.9l-5.3,19c-1.7,6-7.9,9.5-13.9,7.8l-11.7-3.3   c-3.1,5.3-6.8,10.2-11.1,14.7l6.3,10.4c3.2,5.3,1.6,12.2-3.7,15.5l-16.8,10.3c-5.3,3.2-12.2,1.6-15.5-3.7l-6.3-10.4   c-6.1,1.8-12.2,2.8-18.4,3.2c-3.5-12.6-5.1-25.9-4.6-39.2C412.1,358.6,419.7,356.7,426.6,352.5z"/><g><g><path class="st1" d="M408.1,401.4H24.4c-3.8,0-6.9-3.1-6.9-6.9V125.9c0-3.8,3.1-6.9,6.9-6.9h383.6c3.8,0,6.9,3.1,6.9,6.9v268.6     C415,398.3,411.9,401.4,408.1,401.4z"/><path class="st2" d="M404.3,397.7h-376c-3,0-5.5-2.5-5.5-5.5v-264c0-3,2.5-5.5,5.5-5.5h376c3,0,5.5,2.5,5.5,5.5v264     C409.8,395.2,407.3,397.7,404.3,397.7z"/><path class="st3" d="M389.6,373.4H42.9c-1.9,0-3.4-1.5-3.4-3.4V139c0-1.9,1.5-3.4,3.4-3.4h346.8c1.9,0,3.4,1.5,3.4,3.4v231     C393,371.9,391.5,373.4,389.6,373.4z"/><path class="st1" d="M7.9,386.8c-1.1,2.1-1.9,4.5-1.9,7.1c0,8.2,6.7,14.9,14.9,14.9h390.7c8.2,0,14.9-6.7,14.9-14.9     c0-2.6-0.7-5-1.9-7.1H7.9z"/></g><path class="st4" d="M7.9,400.9c2.5,4.7,7.4,7.8,13.1,7.8h390.7c5.7,0,10.5-3.2,13.1-7.8H7.9z"/></g><path class="st5" d="M397.2,119H132v177.3c0,3.9,3.2,7.1,7.1,7.1H415V136.8C415,127,407,119,397.2,119z"/><path class="st6" d="M449.5,295.4h-305c-1.5,0-2.8-1.2-2.8-2.8V101.2c0-1.5,1.2-2.8,2.8-2.8h305c1.5,0,2.8,1.2,2.8,2.8v191.4   C452.2,294.1,451,295.4,449.5,295.4z"/><path class="st7" d="M461.9,282h-305c-1.5,0-2.8-1.2-2.8-2.8V87.9c0-1.5,1.2-2.8,2.8-2.8h305c1.5,0,2.8,1.2,2.8,2.8v191.4   C464.6,280.8,463.4,282,461.9,282z"/><path class="st5" d="M99.5,219.5H62.6c-1,0-1.7-0.8-1.7-1.7v-38.7c0-1,0.8-1.7,1.7-1.7h36.9c1,0,1.7,0.8,1.7,1.7v38.7   C101.3,218.7,100.5,219.5,99.5,219.5z"/><path class="st2" d="M97.2,280.7H60.3c-1,0-1.7-0.8-1.7-1.7v-38.7c0-1,0.8-1.7,1.7-1.7h36.9c1,0,1.7,0.8,1.7,1.7V279   C98.9,279.9,98.2,280.7,97.2,280.7z"/><path class="st2" d="M97.2,340.6H60.3c-1,0-1.7-0.8-1.7-1.7v-38.7c0-1,0.8-1.7,1.7-1.7h36.9c1,0,1.7,0.8,1.7,1.7v38.7   C98.9,339.8,98.2,340.6,97.2,340.6z"/><g><path class="st8" d="M87.6,314.9c0-5.3-4.3-9.6-9.6-9.6c-5.3,0-9.6,4.3-9.6,9.6c0,0-1.4,10.2,9.6,18.2    C88.9,325.1,87.6,314.9,87.6,314.9z"/><path class="st7" d="M78.5,321.8c-4.3,0.3-7.8-3.2-7.5-7.5c0.3-3.4,3-6.1,6.4-6.4c4.3-0.3,7.8,3.2,7.5,7.5    C84.6,318.8,81.9,321.6,78.5,321.8z"/></g><g><g><g><path class="st8" d="M91.1,259.1c0,7.3-5.9,13.3-13.3,13.3s-13.3-5.9-13.3-13.3c0-7.3,5.9-13.3,13.3-13.3S91.1,251.8,91.1,259.1      z"/><path class="st7" d="M88.5,259.1c0,5.9-4.8,10.7-10.7,10.7c-5.9,0-10.7-4.8-10.7-10.7s4.8-10.7,10.7-10.7      C83.7,248.4,88.5,253.2,88.5,259.1z"/><path class="st9" d="M77.8,248.4c4.9,0,8.9,3.2,10.3,7.7c0.1,0.2,0.2,0.3,0.4,0.3l0,0c0.3,0,0.5-0.3,0.4-0.5      c-1.4-4.8-5.8-8.3-11.1-8.3c-5.2,0-9.7,3.5-11.1,8.3c-0.1,0.3,0.1,0.5,0.4,0.5l0,0c0.2,0,0.4-0.1,0.4-0.3      C68.8,251.6,72.9,248.4,77.8,248.4z"/><path class="st10" d="M89.7,259.4c-0.6,0-1.2,0.5-1.3,1.1c-0.7,5.2-5.2,9.3-10.6,9.3c-5.4,0-9.9-4-10.6-9.3      c-0.1-0.6-0.6-1.1-1.3-1.1l0,0c-0.8,0-1.4,0.7-1.3,1.4c0.9,6.5,6.4,11.5,13.2,11.5c6.7,0,12.3-5,13.2-11.5      C91,260.1,90.4,259.4,89.7,259.4L89.7,259.4z"/><path class="st7" d="M88.5,259.1c0,5.9-4.8,10.7-10.7,10.7c-5.9,0-10.7-4.8-10.7-10.7s4.8-10.7,10.7-10.7      C83.7,248.4,88.5,253.2,88.5,259.1z"/><path class="st8" d="M88.2,262.5c-0.2,0-0.3,0.1-0.4,0.3c-1.5,4.1-5.4,7-10,7c-4.6,0-8.5-2.9-10-7c-0.1-0.2-0.2-0.3-0.4-0.3l0,0      c-0.3,0-0.5,0.3-0.4,0.6c1.6,4.4,5.9,7.5,10.8,7.5c5,0,9.2-3.1,10.8-7.5C88.7,262.8,88.5,262.5,88.2,262.5L88.2,262.5z"/></g><path class="st8" d="M77.8,260L77.8,260c-0.3,0-0.5-0.2-0.5-0.5V252c0-0.3,0.2-0.5,0.5-0.5l0,0c0.3,0,0.5,0.2,0.5,0.5v7.5     C78.3,259.8,78,260,77.8,260z"/><path class="st8" d="M77.4,259.2L77.4,259.2c0.2-0.2,0.5-0.2,0.7-0.1l4.6,3.9c0.2,0.2,0.2,0.5,0.1,0.7l0,0     c-0.2,0.2-0.5,0.2-0.7,0.1l-4.6-3.9C77.2,259.8,77.2,259.5,77.4,259.2z"/></g><g><rect class="st11" height="1" width="0.4" x="77.5" y="249.1"/><rect class="st11" height="1" width="0.4" x="77.5" y="267.9"/></g><g><rect class="st11" height="1" transform="matrix(6.123234e-17 -1 1 6.123234e-17 -190.7119 327.3018)" width="0.4" x="68.1" y="258.5"/><rect class="st11" height="1" transform="matrix(6.123234e-17 -1 1 6.123234e-17 -171.957 346.0566)" width="0.4" x="86.9" y="258.5"/></g><g><rect class="st11" height="1" transform="matrix(0.7074 -0.7068 0.7068 0.7074 -157.5951 124.0568)" width="0.4" x="70.8" y="251.9"/><rect class="st11" height="1" transform="matrix(0.7071 -0.7071 0.7071 0.7071 -163.1424 137.4149)" width="0.4" x="84.1" y="265.1"/></g><g><rect class="st11" height="1" transform="matrix(-0.7071 -0.7071 0.7071 -0.7071 -66.5705 503.6992)" width="0.4" x="70.8" y="265.1"/><rect class="st11" height="1" transform="matrix(-0.7074 -0.7068 0.7068 -0.7074 -34.4301 490.5001)" width="0.4" x="84.1" y="251.9"/></g></g><path class="st2" d="M97.2,218.2H60.3c-1,0-1.7-0.8-1.7-1.7v-38.7c0-1,0.8-1.7,1.7-1.7h36.9c1,0,1.7,0.8,1.7,1.7v38.7   C98.9,217.4,98.2,218.2,97.2,218.2z"/><path class="st1" d="M265.1,262.8h-90.6c-0.7,0-1.3-0.6-1.3-1.3V107c0-0.7,0.6-1.3,1.3-1.3h90.6c0.7,0,1.3,0.6,1.3,1.3v154.4   C266.4,262.2,265.8,262.8,265.1,262.8z"/><path class="st2" d="M248.5,131.7h-58.3c-0.6,0-1-0.5-1-1v-11.2c0-0.6,0.5-1,1-1h58.3c0.6,0,1,0.5,1,1v11.2   C249.5,131.2,249.1,131.7,248.5,131.7z"/><path class="st2" d="M209.4,205.6h-12c-2.8,0-5.1-2.3-5.1-5.1l0,0c0-2.8,2.3-5.1,5.1-5.1h12c2.8,0,5.1,2.3,5.1,5.1l0,0   C214.5,203.4,212.2,205.6,209.4,205.6z"/><path class="st8" d="M244,205.6h-12c-2.8,0-5.1-2.3-5.1-5.1l0,0c0-2.8,2.3-5.1,5.1-5.1h12c2.8,0,5.1,2.3,5.1,5.1l0,0   C249.1,203.4,246.8,205.6,244,205.6z"/><rect class="st7" height="10.2" width="64.8" x="187.9" y="145"/><rect class="st7" height="10.2" width="64.8" x="187.9" y="162.3"/><rect class="st12" height="2.3" width="37.3" x="201.8" y="178.9"/><path class="st8" d="M458.3,233.7H341.9c-7.2,0-13-5.8-13-13l0,0c0-7.2,5.8-13,13-13h116.4c7.2,0,13,5.8,13,13l0,0   C471.3,227.9,465.5,233.7,458.3,233.7z"/><g><path class="st1" d="M357.5,123.7H285c-5.9,0-10.6-4.8-10.6-10.6l0,0c0-5.9,4.8-10.6,10.6-10.6h72.5c5.9,0,10.6,4.8,10.6,10.6l0,0    C368.2,118.9,363.4,123.7,357.5,123.7z"/><path class="st13" d="M302.3,113.1c0,1.8-1.5,3.3-3.3,3.3s-3.3-1.5-3.3-3.3c0-1.8,1.5-3.3,3.3-3.3S302.3,111.2,302.3,113.1z"/><path class="st14" d="M325.1,113.1c0,1.8-1.5,3.3-3.3,3.3s-3.3-1.5-3.3-3.3c0-1.8,1.5-3.3,3.3-3.3S325.1,111.2,325.1,113.1z"/><path class="st15" d="M346.2,113.1c0,1.8-1.5,3.3-3.3,3.3c-1.8,0-3.3-1.5-3.3-3.3c0-1.8,1.5-3.3,3.3-3.3    C344.7,109.7,346.2,111.2,346.2,113.1z"/></g><g><circle class="st16" cx="78.3" cy="199.7" r="8.1"/><g><path class="st8" d="M86.7,189.9h-1.4l-2.1-2.9c-0.2-0.2-0.4-0.4-0.7-0.4h-8.2c-0.3,0-0.5,0.1-0.7,0.4l-2.1,2.9h-1.4     c-2.2,0-4,1.8-4,4v11.7c0,2.2,1.8,4,4,4h16.6c2.2,0,4-1.8,4-4V194C90.7,191.7,88.9,189.9,86.7,189.9z M78.4,205.7     c-3.3,0-6-2.7-6-6c0-3.3,2.7-6,6-6c3.3,0,6,2.7,6,6C84.4,203,81.7,205.7,78.4,205.7z"/><circle class="st2" cx="78.4" cy="199.7" r="3.9"/></g></g><g><path class="st1" d="M371.3,192.4H304c-1.1,0-2-0.9-2-2v-42.8c0-1.1,0.9-2,2-2h67.3c1.1,0,2,0.9,2,2v42.8    C373.3,191.5,372.4,192.4,371.3,192.4z"/><path class="st17" d="M337.7,168.6h-0.1c-0.3,0-0.6-0.1-0.9-0.2l-27.5-15.3c-0.9-0.5-1.2-1.6-0.7-2.6c0.5-0.9,1.6-1.2,2.6-0.7    l26.7,14.8l26.7-14.8c0.9-0.5,2-0.2,2.6,0.7c0.5,0.9,0.2,2-0.7,2.6l-27.5,15.3C338.3,168.5,338,168.6,337.7,168.6z"/></g><path class="st18" d="M476.1,187.6h-84.9c-1,0-1.8-0.8-1.8-1.8V74.9c0-1,0.8-1.8,1.8-1.8h84.9c1,0,1.8,0.8,1.8,1.8v110.8   C478,186.8,477.1,187.6,476.1,187.6z"/><g><path class="st19" d="M409.2,88.5h-5.9c-0.3,0-0.6-0.5-0.6-1.1l0,0c0-0.6,0.3-1.1,0.6-1.1h5.9c0.3,0,0.6,0.5,0.6,1.1l0,0    C409.8,88,409.5,88.5,409.2,88.5z"/><path class="st19" d="M445.7,88.5H412c-0.3,0-0.6-0.5-0.6-1.1l0,0c0-0.6,0.3-1.1,0.6-1.1h33.7c0.3,0,0.6,0.5,0.6,1.1l0,0    C446.3,88,446,88.5,445.7,88.5z"/><path class="st20" d="M422.8,93.2H412c-0.3,0-0.6-0.5-0.6-1.1l0,0c0-0.6,0.3-1.1,0.6-1.1h10.8c0.3,0,0.6,0.5,0.6,1.1l0,0    C423.3,92.7,423.1,93.2,422.8,93.2z"/><path class="st1" d="M440.5,93.2H425c-0.3,0-0.6-0.5-0.6-1.1l0,0c0-0.6,0.3-1.1,0.6-1.1h15.5c0.3,0,0.6,0.5,0.6,1.1l0,0    C441,92.7,440.8,93.2,440.5,93.2z"/><path class="st1" d="M445.7,116.1H412c-0.3,0-0.6-0.5-0.6-1.1l0,0c0-0.6,0.3-1.1,0.6-1.1h33.7c0.3,0,0.6,0.5,0.6,1.1l0,0    C446.3,115.6,446,116.1,445.7,116.1z"/><path class="st19" d="M409.2,120.8h-5.9c-0.3,0-0.6-0.5-0.6-1.1l0,0c0-0.6,0.3-1.1,0.6-1.1h5.9c0.3,0,0.6,0.5,0.6,1.1l0,0    C409.8,120.3,409.5,120.8,409.2,120.8z"/><path class="st1" d="M422.8,120.8H412c-0.3,0-0.6-0.5-0.6-1.1l0,0c0-0.6,0.3-1.1,0.6-1.1h10.8c0.3,0,0.6,0.5,0.6,1.1l0,0    C423.3,120.3,423.1,120.8,422.8,120.8z"/><path class="st20" d="M440.5,120.8H425c-0.3,0-0.6-0.5-0.6-1.1l0,0c0-0.6,0.3-1.1,0.6-1.1h15.5c0.3,0,0.6,0.5,0.6,1.1l0,0    C441,120.3,440.8,120.8,440.5,120.8z"/><path class="st20" d="M454.1,97.9H412c-0.3,0-0.6-0.5-0.6-1.1l0,0c0-0.6,0.3-1.1,0.6-1.1h42.1c0.3,0,0.6,0.5,0.6,1.1l0,0    C454.7,97.4,454.4,97.9,454.1,97.9z"/><path class="st19" d="M445.6,102.6h-10.5c-0.1,0-0.2-0.1-0.2-0.2v-1.8c0-0.1,0.1-0.2,0.2-0.2h10.5c0.1,0,0.2,0.1,0.2,0.2v1.8    C445.9,102.5,445.8,102.6,445.6,102.6z"/><path class="st1" d="M426,102.6h-14c-0.3,0-0.6-0.5-0.6-1.1l0,0c0-0.6,0.3-1.1,0.6-1.1h14c0.3,0,0.6,0.5,0.6,1.1l0,0    C426.6,102.1,426.3,102.6,426,102.6z"/><path class="st19" d="M433.4,102.6h-5.5c-0.3,0-0.6-0.5-0.6-1.1l0,0c0-0.6,0.3-1.1,0.6-1.1h5.5c0.3,0,0.6,0.5,0.6,1.1l0,0    C434,102.1,433.7,102.6,433.4,102.6z"/><path class="st1" d="M409.2,107.2h-5.9c-0.3,0-0.6-0.5-0.6-1.1l0,0c0-0.6,0.3-1.1,0.6-1.1h5.9c0.3,0,0.6,0.5,0.6,1.1l0,0    C409.8,106.7,409.5,107.2,409.2,107.2z"/><path class="st1" d="M454.1,107.2H412c-0.3,0-0.6-0.5-0.6-1.1l0,0c0-0.6,0.3-1.1,0.6-1.1h42.1c0.3,0,0.6,0.5,0.6,1.1l0,0    C454.7,106.7,454.4,107.2,454.1,107.2z"/><path class="st1" d="M409.2,125.2h-5.9c-0.3,0-0.6-0.5-0.6-1.1l0,0c0-0.6,0.3-1.1,0.6-1.1h5.9c0.3,0,0.6,0.5,0.6,1.1l0,0    C409.8,124.7,409.5,125.2,409.2,125.2z"/><path class="st1" d="M449.8,125.2h-14.7c-0.2,0-0.3-0.1-0.3-0.3v-1.7c0-0.2,0.1-0.3,0.3-0.3h14.7c0.2,0,0.3,0.1,0.3,0.3v1.7    C450.1,125.1,450,125.2,449.8,125.2z"/><path class="st1" d="M426,125.2h-14c-0.3,0-0.6-0.5-0.6-1.1l0,0c0-0.6,0.3-1.1,0.6-1.1h14c0.3,0,0.6,0.5,0.6,1.1l0,0    C426.6,124.7,426.3,125.2,426,125.2z"/><path class="st1" d="M433.4,125.2h-5.5c-0.3,0-0.6-0.5-0.6-1.1l0,0c0-0.6,0.3-1.1,0.6-1.1h5.5c0.3,0,0.6,0.5,0.6,1.1l0,0    C434,124.7,433.7,125.2,433.4,125.2z"/><path class="st21" d="M409.2,129.8h-5.9c-0.3,0-0.6-0.5-0.6-1.1l0,0c0-0.6,0.3-1.1,0.6-1.1h5.9c0.3,0,0.6,0.5,0.6,1.1l0,0    C409.8,129.2,409.5,129.8,409.2,129.8z"/><path class="st19" d="M419.3,129.8H412c-0.3,0-0.6-0.5-0.6-1.1l0,0c0-0.6,0.3-1.1,0.6-1.1h7.3c0.3,0,0.6,0.5,0.6,1.1l0,0    C419.9,129.2,419.6,129.8,419.3,129.8z"/><path class="st19" d="M403.3,111.9c-0.3,0-0.6-0.5-0.6-1.1l0,0c0-0.6,0.3-1.1,0.6-1.1h5.9c0.3,0,0.6,0.5,0.6,1.1l0,0    c0,0.6-0.3,1.1-0.6,1.1"/><path class="st1" d="M451.8,111.9h-16.6c-0.2,0-0.3-0.1-0.3-0.3v-1.7c0-0.2,0.1-0.3,0.3-0.3h16.6c0.2,0,0.3,0.1,0.3,0.3v1.7    C452.1,111.7,451.9,111.9,451.8,111.9z"/><path class="st21" d="M426,111.9h-14c-0.3,0-0.6-0.5-0.6-1.1l0,0c0-0.6,0.3-1.1,0.6-1.1h14c0.3,0,0.6,0.5,0.6,1.1l0,0    C426.6,111.4,426.3,111.9,426,111.9z"/><path class="st21" d="M433.4,111.9h-5.5c-0.3,0-0.6-0.5-0.6-1.1l0,0c0-0.6,0.3-1.1,0.6-1.1h5.5c0.3,0,0.6,0.5,0.6,1.1l0,0    C434,111.4,433.7,111.9,433.4,111.9z"/><path class="st1" d="M445.7,134.6H412c-0.3,0-0.6-0.5-0.6-1.1l0,0c0-0.6,0.3-1.1,0.6-1.1h33.7c0.3,0,0.6,0.5,0.6,1.1l0,0    C446.3,134.1,446,134.6,445.7,134.6z"/><path class="st1" d="M422.8,139.3H412c-0.3,0-0.6-0.5-0.6-1.1l0,0c0-0.6,0.3-1.1,0.6-1.1h10.8c0.3,0,0.6,0.5,0.6,1.1l0,0    C423.3,138.8,423.1,139.3,422.8,139.3z"/><path class="st1" d="M440.5,139.3H425c-0.3,0-0.6-0.5-0.6-1.1l0,0c0-0.6,0.3-1.1,0.6-1.1h15.5c0.3,0,0.6,0.5,0.6,1.1l0,0    C441,138.8,440.8,139.3,440.5,139.3z"/><path class="st1" d="M445.7,162.3H412c-0.3,0-0.6-0.5-0.6-1.1l0,0c0-0.6,0.3-1.1,0.6-1.1h33.7c0.3,0,0.6,0.5,0.6,1.1l0,0    C446.3,161.7,446,162.3,445.7,162.3z"/><path class="st20" d="M409.2,167h-5.9c-0.3,0-0.6-0.5-0.6-1.1l0,0c0-0.6,0.3-1.1,0.6-1.1h5.9c0.3,0,0.6,0.5,0.6,1.1l0,0    C409.8,166.5,409.5,167,409.2,167z"/><path class="st19" d="M422.8,167H412c-0.3,0-0.6-0.5-0.6-1.1l0,0c0-0.6,0.3-1.1,0.6-1.1h10.8c0.3,0,0.6,0.5,0.6,1.1l0,0    C423.3,166.5,423.1,167,422.8,167z"/><path class="st1" d="M440.5,167H425c-0.3,0-0.6-0.5-0.6-1.1l0,0c0-0.6,0.3-1.1,0.6-1.1h15.5c0.3,0,0.6,0.5,0.6,1.1l0,0    C441,166.5,440.8,167,440.5,167z"/><path class="st20" d="M409.2,144h-5.9c-0.3,0-0.6-0.5-0.6-1.1l0,0c0-0.6,0.3-1.1,0.6-1.1h5.9c0.3,0,0.6,0.5,0.6,1.1l0,0    C409.8,143.5,409.5,144,409.2,144z"/><path class="st20" d="M442.5,144h-30.8c-0.1,0-0.3-0.1-0.3-0.3V142c0-0.1,0.1-0.3,0.3-0.3h30.8c0.1,0,0.3,0.1,0.3,0.3v1.7    C442.8,143.9,442.7,144,442.5,144z"/><path class="st1" d="M409.2,148.7h-5.9c-0.3,0-0.6-0.5-0.6-1.1l0,0c0-0.6,0.3-1.1,0.6-1.1h5.9c0.3,0,0.6,0.5,0.6,1.1l0,0    C409.8,148.2,409.5,148.7,409.2,148.7z"/><path class="st1" d="M426,148.7h-14c-0.3,0-0.6-0.5-0.6-1.1l0,0c0-0.6,0.3-1.1,0.6-1.1h14c0.3,0,0.6,0.5,0.6,1.1l0,0    C426.6,148.2,426.3,148.7,426,148.7z"/><path class="st1" d="M433.4,148.7h-5.5c-0.3,0-0.6-0.5-0.6-1.1l0,0c0-0.6,0.3-1.1,0.6-1.1h5.5c0.3,0,0.6,0.5,0.6,1.1l0,0    C434,148.2,433.7,148.7,433.4,148.7z"/><path class="st1" d="M409.2,153.3h-5.9c-0.3,0-0.6-0.5-0.6-1.1l0,0c0-0.6,0.3-1.1,0.6-1.1h5.9c0.3,0,0.6,0.5,0.6,1.1l0,0    C409.8,152.8,409.5,153.3,409.2,153.3z"/><path class="st1" d="M450.6,153.3h-38.9c-0.2,0-0.3-0.1-0.3-0.3v-1.7c0-0.2,0.1-0.3,0.3-0.3h38.9c0.2,0,0.3,0.1,0.3,0.3v1.7    C450.9,153.2,450.8,153.3,450.6,153.3z"/><path class="st1" d="M409.2,171.3h-5.9c-0.3,0-0.6-0.5-0.6-1.1l0,0c0-0.6,0.3-1.1,0.6-1.1h5.9c0.3,0,0.6,0.5,0.6,1.1l0,0    C409.8,170.8,409.5,171.3,409.2,171.3z"/><path class="st1" d="M454.1,171.3h-18.6c-0.3,0-0.6-0.5-0.6-1.1l0,0c0-0.6,0.3-1.1,0.6-1.1h18.6c0.3,0,0.6,0.5,0.6,1.1l0,0    C454.6,170.8,454.4,171.3,454.1,171.3z"/><path class="st1" d="M426,171.3h-14c-0.3,0-0.6-0.5-0.6-1.1l0,0c0-0.6,0.3-1.1,0.6-1.1h14c0.3,0,0.6,0.5,0.6,1.1l0,0    C426.6,170.8,426.3,171.3,426,171.3z"/><path class="st1" d="M433.4,171.3h-5.5c-0.3,0-0.6-0.5-0.6-1.1l0,0c0-0.6,0.3-1.1,0.6-1.1h5.5c0.3,0,0.6,0.5,0.6,1.1l0,0    C434,170.8,433.7,171.3,433.4,171.3z"/><path class="st21" d="M437.3,175.9h-25.6c-0.1,0-0.2-0.1-0.2-0.2v-1.8c0-0.1,0.1-0.2,0.2-0.2h25.6c0.1,0,0.2,0.1,0.2,0.2v1.8    C437.5,175.8,437.4,175.9,437.3,175.9z"/><path class="st20" d="M452.8,158h-17.6c-0.2,0-0.3-0.1-0.3-0.3V156c0-0.2,0.1-0.3,0.3-0.3h17.6c0.2,0,0.3,0.1,0.3,0.3v1.7    C453.1,157.9,452.9,158,452.8,158z"/><path class="st21" d="M426,158h-14c-0.3,0-0.6-0.5-0.6-1.1l0,0c0-0.6,0.3-1.1,0.6-1.1h14c0.3,0,0.6,0.5,0.6,1.1l0,0    C426.6,157.5,426.3,158,426,158z"/><path class="st21" d="M433.4,158h-5.5c-0.3,0-0.6-0.5-0.6-1.1l0,0c0-0.6,0.3-1.1,0.6-1.1h5.5c0.3,0,0.6,0.5,0.6,1.1l0,0    C434,157.5,433.7,158,433.4,158z"/></g><g><circle class="st22" cx="470.8" cy="75.5" r="18.6"/><g><g><path class="st7" d="M469.5,73.7l-7.4,2.7l7.4,2.7v2.8l-10.6-4V75l10.6-4V73.7z"/></g><g><path class="st7" d="M471.9,71l10.6,4v2.9l-10.6,4v-2.8l7.4-2.7l-7.4-2.7V71z"/></g></g></g><g><ellipse class="st13" cx="349.8" cy="367" rx="29.8" ry="29.8" transform="matrix(0.8276 -0.5613 0.5613 0.8276 -145.6602 259.6025)"/><g><path class="st16" d="M365.6,365.2c0,1.8-0.3,3.5-0.9,5.1c-0.6,1.5-1.4,2.7-2.5,3.6c-1.1,0.9-2.3,1.3-3.8,1.3     c-1,0-1.8-0.2-2.5-0.7c-0.7-0.5-1.3-1.1-1.6-1.8H354c-1.4,1.7-3.2,2.5-5.3,2.5c-2.3,0-4.1-0.7-5.4-2.1c-1.3-1.4-2-3.2-2-5.6     c0-2.7,0.9-4.9,2.6-6.5c1.7-1.7,4-2.5,6.7-2.5c1.1,0,2.3,0.1,3.6,0.3c1.3,0.2,2.4,0.5,3.3,0.8l-0.4,9.4c0,1.8,0.5,2.7,1.5,2.7     c0.8,0,1.5-0.6,2-1.8c0.5-1.2,0.7-2.8,0.7-4.7c0-2.1-0.4-3.9-1.3-5.5c-0.9-1.6-2.1-2.8-3.6-3.6c-1.6-0.8-3.3-1.3-5.3-1.3     c-2.6,0-4.8,0.5-6.8,1.6c-1.9,1.1-3.4,2.6-4.4,4.6c-1,2-1.5,4.3-1.5,7c0,3.5,0.9,6.3,2.8,8.2c1.9,1.9,4.6,2.8,8.2,2.8     c1.4,0,2.9-0.2,4.5-0.5c1.6-0.3,3.2-0.7,4.8-1.3v3.7c-2.7,1.2-5.8,1.8-9.1,1.8c-4.9,0-8.7-1.3-11.4-3.9     c-2.7-2.6-4.1-6.1-4.1-10.7c0-3.2,0.7-6,2.1-8.6c1.4-2.6,3.4-4.6,6-6.1c2.6-1.5,5.5-2.2,8.9-2.2c2.8,0,5.3,0.6,7.6,1.7     c2.2,1.2,3.9,2.8,5.1,4.9C365,360,365.6,362.5,365.6,365.2z M345.8,367.7c0,2.7,1.1,4.1,3.3,4.1c1.2,0,2-0.4,2.6-1.2     c0.6-0.8,1-2.1,1.1-4l0.3-4.3c-0.7-0.1-1.4-0.2-2.2-0.2c-1.6,0-2.9,0.5-3.7,1.5C346.3,364.6,345.8,365.9,345.8,367.7z"/></g></g><g><path class="st8" d="M246,40H119.3c-10.3,0-18.6,8.3-18.6,18.6c0,10.3,8.3,18.6,18.6,18.6h9.3l9,9l9-9H246    c10.3,0,18.6-8.3,18.6-18.6C264.7,48.4,256.3,40,246,40z"/><path class="st16" d="M209.8,64.6h-83.4c-1.2,0-2.1-0.9-2.1-2.1l0,0c0-1.2,0.9-2.1,2.1-2.1h83.4c1.2,0,2.1,0.9,2.1,2.1l0,0    C211.8,63.7,210.9,64.6,209.8,64.6z"/><path class="st16" d="M183.7,53.1h-57.4c-1.2,0-2.1-0.9-2.1-2.1l0,0c0-1.2,0.9-2.1,2.1-2.1h57.4c1.2,0,2.1,0.9,2.1,2.1l0,0    C185.8,52.2,184.8,53.1,183.7,53.1z"/></g><path class="st23" d="M453.2,197.5c-11.2,0-20.3,9.1-20.3,20.3s9.1,20.3,20.3,20.3s20.3-9.1,20.3-20.3S464.4,197.5,453.2,197.5z    M442.9,216.2c0-1.4,1.1-2.5,2.5-2.5s2.5,1.1,2.5,2.5s-1.1,2.5-2.5,2.5S442.9,217.6,442.9,216.2z M453.2,228.9   c-3.3,0-6-2.4-6.4-5.6h12.8C459.2,226.5,456.5,228.9,453.2,228.9z M461,218.7c-1.4,0-2.5-1.1-2.5-2.5s1.1-2.5,2.5-2.5   c1.4,0,2.5,1.1,2.5,2.5S462.4,218.7,461,218.7z"/><polygon class="st7" points="151.2,362.4 150,360 182.2,343.9 222.9,344.6 267,328 300.8,328 336.8,316 337.1,316 365.9,319.3    382.2,310.8 383.4,313.2 366.4,322 366,322 337,318.7 301,330.6 267.3,330.6 223.4,347.3 223.1,347.3 182.8,346.6  "/><g><path class="st8" d="M122.6,341l-22.8,6.3c-6.3,1.7-10,8.3-8.3,14.5l4.3,15.7c1.7,6.3,8.3,10,14.5,8.3l6.8-1.9l6.7,6.7l2.4-9.2    l6.8-1.9c6.3-1.7,10-8.3,8.3-14.5l-4.3-15.7C135.4,343,128.8,339.3,122.6,341z"/><g><path class="st16" d="M107.5,366.8c0.4,1.4-0.4,2.8-1.8,3.2c-1.4,0.4-2.8-0.4-3.2-1.8c-0.4-1.4,0.4-2.8,1.8-3.2     C105.6,364.6,107.1,365.4,107.5,366.8z"/><path class="st16" d="M119,363.6c0.4,1.4-0.4,2.8-1.8,3.2c-1.4,0.4-2.8-0.4-3.2-1.8c-0.4-1.4,0.4-2.8,1.8-3.2     S118.6,362.2,119,363.6z"/><path class="st16" d="M130.5,360.5c0.4,1.4-0.4,2.8-1.8,3.2c-1.4,0.4-2.8-0.4-3.2-1.8s0.4-2.8,1.8-3.2     C128.6,358.3,130.1,359.1,130.5,360.5z"/></g></g><circle class="st13" cx="182.3" cy="344.6" r="4.2"/><circle class="st24" cx="337.1" cy="317.5" r="4.2"/><g><path class="st25" d="M300,468.1c0,2.1,22.7,3.9,50.7,3.9c28,0,50.7-1.7,50.7-3.9c0-2.1-22.7-3.9-50.7-3.9    C322.7,464.3,300,466,300,468.1z"/><g><linearGradient gradientTransform="matrix(-0.9677 -0.2523 -0.2523 0.9677 822.6711 81.0645)" gradientUnits="userSpaceOnUse" id="SVGID_1_" x1="431.1525" x2="403.7607" y1="253.3063" y2="321.5876"><stop offset="0" style="stop-color:#E6224B"/><stop offset="1" style="stop-color:#9E1460"/></linearGradient><path class="st26" d="M345,269.8c1.5-2.9,4.2-9.6,7-26.2c1.7-10.1,1.8-14.3,2-17.4c0.3-5.4-4.1-6.9-6.6-5.3     c-4,2.7-7,8.3-7.3,11.2c-1.7,16.3-2.5,28.6-3.6,32.7C335,270.7,343.2,273.2,345,269.8z"/><linearGradient gradientTransform="matrix(-0.7279 -0.6857 -0.6857 0.7279 888.5352 256.7559)" gradientUnits="userSpaceOnUse" id="SVGID_2_" x1="414.3265" x2="403.8325" y1="368.2186" y2="394.3774"><stop offset="0" style="stop-color:#E6224B"/><stop offset="1" style="stop-color:#9E1460"/></linearGradient><path class="st27" d="M306.6,258.8c1.1,2.2,3.9,1.1,11,4.8c10.2,5.4,13.3,6.2,21.7,8.2c5.5,1.3,9.5-6,3.3-8.8     c-5.3-2.4-30.2-7.3-33.4-8.7C307.1,253.3,305.7,256.9,306.6,258.8z"/><linearGradient gradientTransform="matrix(-1 0 0 1 762.5039 0)" gradientUnits="userSpaceOnUse" id="SVGID_3_" x1="378.7185" x2="382.8371" y1="499.5946" y2="448.8712"><stop offset="0" style="stop-color:#344596"/><stop offset="0.6488" style="stop-color:#E72569"/><stop offset="1" style="stop-color:#EFBA92"/></linearGradient><path class="st28" d="M378.4,456.4c-0.5,2-0.3,2.7-0.5,4c-0.3,1.6-1.8,2.2-2.6,3.6c-1,1.5-2.5,3.8,3.4,4c6.3,0.1,10-0.3,8.9-3.9     c-1.1-3.5-1.3-5.1-1.2-6.3c0.1-1.2,0-2.4-0.7-3.1C384.9,454.1,379.3,452.9,378.4,456.4z"/><path class="st29" d="M366.9,203.8c0.1,0.5,0.8,10.4,0.9,18c0.1,3.7-2.6,7.3-5.3,7.4c0,0-0.1,0-0.1,0c-2.6,0-5.7-3.3-5.5-7     c0.4-6.6,0.1-13.4,0.1-13.5L366.9,203.8z"/><linearGradient gradientTransform="matrix(-1 0 0 1 762.5039 0)" gradientUnits="userSpaceOnUse" id="SVGID_4_" x1="404.0384" x2="413.2306" y1="234.1206" y2="313.0662"><stop offset="0" style="stop-color:#E6224B"/><stop offset="1" style="stop-color:#9E1460"/></linearGradient><path class="st30" d="M374.6,246.7c-2.3,6.8-3.6,13.8-4.8,20.9c-0.9,5.2-0.6,10.5,0.1,15.7c0.4,3.1,1,6.2,1.8,9.3     c0.3,1.2,2.6,10.6,2.7,11.6c0,0-40.6,0-43,0c0.4-8.4,10-34.9,3.5-52c-4.5-11.9,1.5-12.2,5.5-22.1c1-2.4,1.8-5.1,3.4-7.2     c1.6-2,4.1-3.4,6.6-4c1.3-0.3,2.7-0.5,4-0.6c7.3-0.6,24.4-2.7,26,7.7c0.4,2.8,0,5.7-0.9,8.4c-1,3-2.4,5.9-3.6,8.8     C375.5,244.3,375,245.5,374.6,246.7z"/><linearGradient gradientTransform="matrix(-1 0 0 1 762.5039 0)" gradientUnits="userSpaceOnUse" id="SVGID_5_" x1="409.694" x2="409.694" y1="520.8456" y2="379.6358"><stop offset="0" style="stop-color:#008261"/><stop offset="1" style="stop-color:#A6C715"/></linearGradient><path class="st31" d="M374.1,331.5c0,0,3.7-9.4,0.2-27.3h-43c0,0-1.5,12.8-1.6,27.3H374.1z"/><g><g><linearGradient gradientTransform="matrix(-1 0 0 1 762.5039 0)" gradientUnits="userSpaceOnUse" id="SVGID_6_" x1="386.5678" x2="386.5678" y1="520.8464" y2="379.6367"><stop offset="0" style="stop-color:#008261"/><stop offset="1" style="stop-color:#A6C715"/></linearGradient><path class="st32" d="M365.7,389.9c-3.4-14.5,10.9-17.1,15.4-6.6c6.4,14.9,5.9,62.4,5.5,71.9c0,1.2-0.7,1-1.4,0.8       c-2-0.7-3.7-1-4.5-0.9c-1.6,0.3-2.4,2-2.4,2C376.9,444.1,369,404,365.7,389.9z"/><linearGradient gradientTransform="matrix(-1 0 0 1 762.5039 0)" gradientUnits="userSpaceOnUse" id="SVGID_7_" x1="395.5965" x2="395.5965" y1="520.8412" y2="379.6345"><stop offset="0" style="stop-color:#008261"/><stop offset="1" style="stop-color:#A6C715"/></linearGradient><path class="st33" d="M352.8,333.5c-1.5-18,5.4-32.1,16.2-26.1c4.5,2.5,6.2,7.5,6.8,12.2c0.6,4.7,3.9,53.8,5.1,62.7       c2.6,20-12.6,14.6-14.2,9.1C362.5,377.4,353.6,343.3,352.8,333.5z"/></g></g><linearGradient gradientTransform="matrix(-1 0 0 1 762.5039 0)" gradientUnits="userSpaceOnUse" id="SVGID_8_" x1="426.6673" x2="426.6673" y1="520.8479" y2="379.6367"><stop offset="0" style="stop-color:#008261"/><stop offset="1" style="stop-color:#A6C715"/></linearGradient><path class="st34" d="M327.4,389c-0.6-13.5,12.1-13.3,15.3-2.2c5,17.3-3.7,54.6-4.2,75.8c-2.2-3.7-4.3-4.6-5.3-4.5     c-1.6,0.1-2.5,1.4-2.5,1.4C331.1,431.5,328,403.5,327.4,389z"/><linearGradient gradientTransform="matrix(-1 0 0 1 762.5039 0)" gradientUnits="userSpaceOnUse" id="SVGID_9_" x1="421.872" x2="421.872" y1="520.845" y2="379.6355"><stop offset="0" style="stop-color:#008261"/><stop offset="1" style="stop-color:#A6C715"/></linearGradient><path class="st35" d="M342.2,390.4c-1.7,5.5-16.2,11.9-14.7-8.2c0.7-8.9,2.5-58.2,2.8-63c0.3-4.8,1.1-11.7,3.4-12.6     c11.5-4.3,22.6,9.8,19.6,27.7C351.3,346.3,345.7,379,342.2,390.4z"/><g><g><linearGradient gradientTransform="matrix(-1 0 0.4338 1 639.2499 0)" gradientUnits="userSpaceOnUse" id="SVGID_10_" x1="391.2126" x2="424.3561" y1="231.779" y2="287.2163"><stop offset="0" style="stop-color:#344596"/><stop offset="1" style="stop-color:#138D68"/></linearGradient><polygon class="st36" points="341.5,259.9 347.6,259.9 346.7,258.3 340.6,258.3      "/><linearGradient gradientTransform="matrix(-1 0 0.4338 1 639.2499 0)" gradientUnits="userSpaceOnUse" id="SVGID_11_" x1="405.4528" x2="438.6277" y1="227.025" y2="282.5149"><stop offset="0" style="stop-color:#344596"/><stop offset="1" style="stop-color:#138D68"/></linearGradient><polygon class="st37" points="324.1,261.4 330.2,261.4 329.4,259.9 323.3,259.9      "/><linearGradient gradientTransform="matrix(-1 0 0.4338 1 639.2499 0)" gradientUnits="userSpaceOnUse" id="SVGID_12_" x1="399.5252" x2="432.7169" y1="230.1527" y2="285.6707"><stop offset="0" style="stop-color:#344596"/><stop offset="1" style="stop-color:#138D68"/></linearGradient><polygon class="st38" points="331.9,261.4 338,261.4 337.2,259.9 331.1,259.9      "/></g><g><linearGradient gradientTransform="matrix(-1 0 0.4338 1 639.2499 0)" gradientUnits="userSpaceOnUse" id="SVGID_13_" x1="398.4336" x2="432.1322" y1="228.0698" y2="284.4356"><stop offset="0" style="stop-color:#344596"/><stop offset="1" style="stop-color:#138D68"/></linearGradient><polygon class="st39" points="321.1,267.2 349.4,267.2 346.5,261.7 318.1,261.7      "/><polygon class="st40" points="321.7,267.4 326.6,267.4 324.5,263.5 319.7,263.5      "/><polygon class="st40" points="338.2,263.5 348.7,263.5 348.3,262.7 337.8,262.7      "/><polygon class="st40" points="335.4,265.8 345.8,265.8 345.4,265 335,265      "/><polygon class="st40" points="339.5,267.1 346.5,267.1 346.1,266.4 339.1,266.4      "/></g><g><linearGradient gradientTransform="matrix(-1 0 0.4338 1 639.2499 0)" gradientUnits="userSpaceOnUse" id="SVGID_14_" x1="391.3546" x2="423.6825" y1="233.8972" y2="287.9703"><stop offset="0" style="stop-color:#344596"/><stop offset="1" style="stop-color:#138D68"/></linearGradient><polygon class="st41" points="335.8,276.3 353.8,276.3 350.2,269.5 332.1,269.5      "/><polygon class="st40" points="339.5,271.3 348.8,271.3 348.4,270.5 339.1,270.5      "/><polygon class="st40" points="342.5,272.6 349.5,272.6 349.1,271.9 342.1,271.9      "/><polygon class="st40" points="345.5,273.9 350.2,273.9 349.8,273.2 345.1,273.2      "/><polygon class="st40" points="342,273.9 344.9,273.9 344.5,273.2 341.6,273.2      "/><polygon class="st40" points="344.5,275.3 350.9,275.3 350.5,274.5 344.1,274.5      "/></g><linearGradient gradientTransform="matrix(-1 0 0.4338 1 639.2499 0)" gradientUnits="userSpaceOnUse" id="SVGID_15_" x1="405.9095" x2="436.5773" y1="226.9999" y2="278.2961"><stop offset="0" style="stop-color:#344596"/><stop offset="1" style="stop-color:#138D68"/></linearGradient><polygon class="st42" points="322.4,255.4 344.2,255.4 334.7,237.9 313,237.9     "/><g><linearGradient gradientTransform="matrix(-1 0 0.4338 1 639.2499 0)" gradientUnits="userSpaceOnUse" id="SVGID_16_" x1="404.2631" x2="434.927" y1="230.2946" y2="281.5845"><stop offset="0" style="stop-color:#344596"/><stop offset="1" style="stop-color:#138D68"/></linearGradient><polygon class="st43" points="325.5,276.3 334,276.3 330.3,269.5 321.8,269.5      "/><path class="st40" d="M328.1,273.2L328.1,273.2c0.6,0,0.9-0.4,0.6-0.9l-0.3-0.5c-0.3-0.5-1-0.9-1.5-0.9l0,0       c-0.6,0-0.9,0.4-0.6,0.9l0.3,0.5C326.8,272.8,327.5,273.2,328.1,273.2z"/><path class="st40" d="M327.8,272.8c1,0,2.2,0.5,2.9,1.2c0.5,0.4,0.3,0.9-0.2,0.9h-3.2c-0.6,0-1.2-0.5-1.2-0.9       C326.2,273.3,326.8,272.8,327.8,272.8z"/></g><linearGradient gradientTransform="matrix(-1 0 0.4338 1 639.2499 0)" gradientUnits="userSpaceOnUse" id="SVGID_17_" x1="417.9049" x2="445.9847" y1="226.8848" y2="273.8524"><stop offset="0" style="stop-color:#344596"/><stop offset="1" style="stop-color:#138D68"/></linearGradient><polygon class="st44" points="312.2,240.8 308.3,240.8 319.4,261.4 323.3,261.4     "/></g><linearGradient gradientTransform="matrix(-1 0 0 1 762.5039 0)" gradientUnits="userSpaceOnUse" id="SVGID_18_" x1="413.1344" x2="413.1344" y1="219.152" y2="186.3316"><stop offset="0" style="stop-color:#36277C"/><stop offset="1" style="stop-color:#47A9E0"/></linearGradient><path class="st45" d="M343.8,186.3c-0.4,10.1-1.9,26.4-3.3,29.2c0,0,14-0.8,16.7-7.8c2.8-7-0.8-29.5-8.6-30.3"/><linearGradient gradientTransform="matrix(-1 0 0.4338 1 639.2499 0)" gradientUnits="userSpaceOnUse" id="SVGID_19_" x1="427.1679" x2="427.1679" y1="227.4541" y2="380.6666"><stop offset="0" style="stop-color:#36277C"/><stop offset="1" style="stop-color:#138D68"/></linearGradient><polygon class="st46" points="319.2,278.3 350,278.3 331.8,244.5 301,244.5    "/><path class="st29" d="M344.4,264.5c-2-1.6-4.7-3.1-6.6-3.3c-1.9-0.2,1.3,2.3,2.8,3.6C342.1,266,346.2,265.8,344.4,264.5z"/><path class="st29" d="M341.6,264.5c-5.2-0.8-7.9-2-10.3-1.1c-2.4,0.9,1.1,4.3,2.9,4.8c1.8,0.5,8.1,2.9,9.9,1.6     C346,268.6,345.5,265,341.6,264.5z"/><linearGradient gradientTransform="matrix(-0.6871 -0.2658 -0.349 0.937 786.1442 81.7357)" gradientUnits="userSpaceOnUse" id="SVGID_20_" x1="455.0837" x2="425.1726" y1="272.8295" y2="347.3907"><stop offset="0" style="stop-color:#E6224B"/><stop offset="1" style="stop-color:#9E1460"/></linearGradient><path class="st47" d="M382.7,270c0.8-3.2,1.7-10.4,0.2-27.1c-0.9-10.2-1.8-14.3-2.5-17.3c-1.1-5.3-5.8-5.7-7.7-3.4     c-3.2,3.6-4.7,9.8-4.3,12.7c2.5,16.2,4.7,28.3,4.8,32.5C373.3,273.4,381.8,273.7,382.7,270z"/><linearGradient gradientTransform="matrix(-0.8773 -0.4799 -0.4799 0.8773 870.2215 153.3358)" gradientUnits="userSpaceOnUse" id="SVGID_21_" x1="399.3235" x2="388.8302" y1="322.3276" y2="348.4847"><stop offset="0" style="stop-color:#E6224B"/><stop offset="1" style="stop-color:#9E1460"/></linearGradient><path class="st48" d="M342.8,269c1.7,1.9,4,0.1,11.9,1.9c11.2,2.6,14.4,2.7,23,2.5c5.6-0.1,7.7-8.2,1-9.4c-5.7-1-31,0.6-34.5,0     C341.9,263.6,341.5,267.5,342.8,269z"/><path class="st29" d="M372.1,196.6c-0.8,8.5-1.1,10.4-4.8,13.8c-3.7,3.5-9,5.1-13,5.1c-4.3,0-7.6-4.6-8.5-8.2     c-1-3.7-2.2-12.4-1-21.7c0.6-4.7,6.4-10.4,12.4-10.4C363.1,175.2,374.1,175.9,372.1,196.6z"/><path class="st29" d="M309.7,255c-0.7-1.3-1.9-3.3-2.4-4.4c-0.5-1.1-3.1,0-3.4,0.8c-0.4,1.2-0.4,4.6,1,5.8c1.2,1.1,3,1.6,4.5,1.5     C310.8,258.6,310.8,257.1,309.7,255z"/><linearGradient gradientTransform="matrix(-1 0 0 1 762.5039 0)" gradientUnits="userSpaceOnUse" id="SVGID_22_" x1="431.6659" x2="435.7835" y1="503.8851" y2="453.1725"><stop offset="0" style="stop-color:#344596"/><stop offset="0.6488" style="stop-color:#E72569"/><stop offset="1" style="stop-color:#EFBA92"/></linearGradient><path class="st49" d="M330.2,459.4c-0.5,1-2.8,3.2-6.1,4.6c-3.3,1.5-10.2,2.1-6.3,3.4c3.8,1.3,8.3,0.5,10.6,0.1     c2.3-0.4,4.5-0.4,7.1-0.4c3.5,0,3.5-0.2,3.1-4.2C337.9,457.5,331.8,456.3,330.2,459.4z"/><path class="st29" d="M369.5,196.7c-1.2,2.9-0.9,5.8,0.6,6.4c1.5,0.6,3.8-1.2,5-4.2c1.2-2.9,0.9-5.8-0.6-6.4     C373,191.9,370.7,193.8,369.5,196.7z"/><linearGradient gradientTransform="matrix(-1 0 0 1 762.5039 0)" gradientUnits="userSpaceOnUse" id="SVGID_23_" x1="401.6425" x2="401.6425" y1="219.1489" y2="186.3328"><stop offset="0" style="stop-color:#36277C"/><stop offset="1" style="stop-color:#47A9E0"/></linearGradient><path class="st50" d="M346.1,181.2c-3.3,5.7,20.8,16.1,26.2,15.2c5.4-0.9,4.1-11.1,0-16.3C368.2,174.8,354,167.8,346.1,181.2z"/><linearGradient gradientTransform="matrix(-1 0 0 1 762.5039 0)" gradientUnits="userSpaceOnUse" id="SVGID_24_" x1="413.0389" x2="413.0389" y1="219.1532" y2="186.3335"><stop offset="0" style="stop-color:#36277C"/><stop offset="1" style="stop-color:#47A9E0"/></linearGradient><path class="st51" d="M355.1,179.8c-0.9,4.8-9.3,5.9-10.7,9.9c-0.9,2.5-1.3-5.3,0.7-8.9C347,177.3,356.8,170.1,355.1,179.8z"/><linearGradient gradientTransform="matrix(-1 0 0 1 762.5039 0)" gradientUnits="userSpaceOnUse" id="SVGID_25_" x1="393.366" x2="393.366" y1="219.1517" y2="186.3345"><stop offset="0" style="stop-color:#36277C"/><stop offset="1" style="stop-color:#47A9E0"/></linearGradient><path class="st52" d="M365.4,190.9c0.2,10.1-1.1,21.8-2.5,24.6c0,0,14-0.8,16.7-7.8c2.8-7,4.7-34.8-22.4-34.3"/></g><g><defs><path d="M387.6,464.1c-1.1-3.5-1.3-5.1-1.2-6.3c0-0.6,0-1.3-0.1-1.8c0.2-0.1,0.3-0.3,0.3-0.8      c0.3-9.5,0.8-57-5.5-71.9c0,0,0-0.1,0-0.1c0-0.3,0-0.6-0.1-0.9c-1.2-8.7-4.4-56.4-5.1-62.4c0.1-4.2-0.2-9.4-1.5-15.7      c-0.1-1-2.4-10.4-2.7-11.6c-0.7-3.1-1.3-6.2-1.8-9.3c-0.4-3.3-0.7-6.6-0.6-10c2.5,0.1,5,0.1,8.4,0c1.6,0,2.9-0.8,3.8-1.8      c0.6-0.4,1-0.9,1.2-1.6c0.8-3.2,1.7-10.4,0.2-27.1c-0.9-10.2-1.8-14.3-2.5-17.3c-0.4-1.8-1.1-2.9-2.1-3.7      c-2.4-2.6-6.4-3.6-10.7-4c0-1-0.1-2-0.1-3c4.3-0.9,10.3-2.8,12-7.1c2.6-6.7,4.4-32.2-19-34.1c-0.9-0.1-1.8-0.2-2.7-0.1      c-0.3,0-0.5,0-0.8,0l0,0.1c-1.8,0.1-3.5,0.7-5.2,1.6c-2.6,0.8-5.9,3.7-7,5.6c-1.2,2.2-1.5,6.1-1.4,8.1      c-0.5,10.1-1.9,24-3.1,26.6c0,0,4.7-0.3,9.1-1.8c1.3,1.1,2.8,1.8,4.6,1.8c0.9,0,1.9-0.1,2.8-0.3c0,0.9,0,1.9,0,2.9      c-1,0.1-1.9,0.2-2.6,0.2c-1.3,0.1-2.7,0.2-4,0.6c-2.5,0.6-5,2-6.6,4c-1.6,2.1-2.4,4.7-3.4,7.2c-1.7,4-3.6,6.5-5.1,8.8l-0.5-1      H313l3.6,6.6h-2.4l-2-3.7h-3.9l2,3.7H301l3.4,6.4c-0.2,0.2-0.4,0.4-0.5,0.6c-0.4,1.2-0.4,4.6,1,5.8c0.4,0.4,0.9,0.7,1.5,0.9      c0,0.2,0.1,0.4,0.2,0.6c0.5,1.1,1.5,1.4,3,1.8l9.6,17.8h16.9c-1.6,11.1-4.6,21.2-4.8,25.9c0,0-1.5,12.8-1.6,27.3      c-0.7,16.5-1.8,44.3-2.3,50.7c-0.1,1.6-0.1,2.9,0,4.2c-0.1,0.8-0.1,1.6-0.1,2.5c0.6,14.3,3.6,42,3.4,69.8      c-0.2,0.2-0.4,0.4-0.5,0.7c-0.5,1-2.8,3.2-6.1,4.6c-3.3,1.5-10.2,2.1-6.3,3.4c3.8,1.3,8.3,0.5,10.6,0.1c2.3-0.4,4.5-0.4,7.1-0.4      c3.5,0,3.5-0.2,3.1-4.2c0-0.2-0.1-0.3-0.1-0.5c0,0,0,0.1,0.1,0.1c0.5-20.9,8.9-57,4.4-74.8c3.4-12.7,8.1-39.9,10.1-51.9      c1.6,10.7,7.9,35.7,12.1,50.3c0,1.1,0.2,2.3,0.5,3.7c3.3,14.1,11.2,54.2,12.6,67.1c0,0,0,0,0,0c-0.3,1.6-0.2,2.3-0.4,3.5      c-0.3,1.6-1.8,2.2-2.6,3.6c-1,1.5-2.5,3.8,3.4,4C384.9,468.1,388.6,467.7,387.6,464.1z M370.5,263.7c0.4-2.4,0.9-4.8,1.4-7.1      c0.4,2.8,0.8,5.2,1,7.1C372.2,263.7,371.4,263.7,370.5,263.7z" id="SVGID_26_"/></defs><clipPath id="SVGID_27_"><use style="overflow:visible;" xlink:href="#SVGID_26_"/></clipPath><linearGradient gradientTransform="matrix(-0.5115 -0.8102 0.4686 -0.5423 203.943 725.3832)" gradientUnits="userSpaceOnUse" id="SVGID_28_" x1="-83.2548" x2="217.7585" y1="427.0161" y2="611.9524"><stop offset="0" style="stop-color:#2A4B9B"/><stop offset="1" style="stop-color:#9E1460"/></linearGradient><path class="st53" d="M367.8,221.8c21.2-17.3,74.7-2.1,86.2,24.9c11.7,27.5-7.9,44.1,15,81.3c18.1,29.4,6.8,65.9,6.7,93.5     c-0.1,30.3,16.7,42.7,15.3,69.9c-3.1,62.6,57.4,91.4,17.2,110c-41.3,19.1-44.3-8.2-91.1-2.1c-40.7,5.3-56.8-97.9-58-138.1     c-1.2-42.5,26.5-59.7,10.1-102.9c-9.8-25.9-17.1-28.6-4-66C370.7,276.5,327.2,254.9,367.8,221.8z"/></g></g></g></svg>