<svg xmlns="http://www.w3.org/2000/svg" width="15" height="19" viewBox="0 0 15 19" fill="none">
  <path fill-rule="evenodd" clip-rule="evenodd" d="M2.83553 10.8512C3.73985 9.32239 2.54497 8.98736 2.35772 7.87988C1.59151 3.35228 7.82013 0.260325 11.0822 3.42389C13.3397 5.61478 11.853 12.3512 8.21407 11.6503C4.72868 10.9823 9.92107 5.61963 7.13955 4.56734C4.87831 3.71138 3.67759 7.18333 4.74979 8.90924C4.12069 11.8774 2.76702 14.672 3.3151 18.3923C5.09242 17.1599 5.69233 14.7986 6.18333 12.3359C7.07678 12.8555 7.55468 13.3949 8.69356 13.479C12.8943 13.79 15.2419 9.46931 14.6665 5.48093C14.1571 1.94633 10.4713 0.146211 6.54006 0.568143C3.4321 0.90093 0.333728 3.30327 0.204794 6.73866C0.12662 8.83559 0.74888 10.4092 2.83553 10.8512Z" fill="#F7F6F6"/>
</svg>