<svg xmlns="http://www.w3.org/2000/svg" width="56" height="56" viewBox="0 0 56 56" fill="none">
  <path d="M52.6595 33.9939L52.659 33.9944C50.7508 35.906 49.6756 38.4981 49.6756 41.1999C49.6756 45.8806 45.8806 49.6756 41.1999 49.6756C38.4987 49.6756 35.9061 50.7472 33.9939 52.6595C30.6827 55.9706 25.3173 55.9706 22.0061 52.6595L22.0056 52.659C20.094 50.7508 17.5019 49.6756 14.8001 49.6756C10.1194 49.6756 6.3244 45.8806 6.3244 41.1999C6.3244 38.4987 5.25275 35.9061 3.3405 33.9939C0.0293579 30.6827 0.0293582 25.3173 3.3405 22.0061L3.34104 22.0056C5.2492 20.094 6.3244 17.5019 6.3244 14.8001C6.3244 10.1194 10.1194 6.3244 14.8001 6.3244C17.5013 6.3244 20.0939 5.25275 22.0061 3.3405C25.3173 0.0293582 30.6827 0.0293579 33.9939 3.3405L33.9944 3.34104C35.906 5.2492 38.4981 6.3244 41.1999 6.3244C45.8806 6.3244 49.6756 10.1194 49.6756 14.8001C49.6756 17.5013 50.7472 20.0939 52.6595 22.0061C55.9706 25.3173 55.9706 30.6827 52.6595 33.9939Z" fill="#1505CC" stroke="white" stroke-width="1.71429"/>
</svg>