<svg xmlns="http://www.w3.org/2000/svg" width="19" height="19" viewBox="0 0 19 19" fill="none">
  <path d="M15.9834 2.84231C15.9074 2.76663 15.8113 2.71423 15.7065 2.69127C15.6017 2.66832 15.4925 2.67576 15.3918 2.71272L2.99645 7.22013C2.88955 7.26068 2.79752 7.33279 2.73257 7.42688C2.66763 7.52098 2.63284 7.6326 2.63284 7.74693C2.63284 7.86127 2.66763 7.97289 2.73257 8.06699C2.79752 8.16108 2.88955 8.23319 2.99645 8.27374L8.40534 10.4373L10.5689 15.8462C10.6095 15.9484 10.6792 16.0365 10.7693 16.0995C10.8594 16.1626 10.966 16.1979 11.076 16.2011C11.1898 16.1988 11.3003 16.162 11.3929 16.0956C11.4854 16.0293 11.5556 15.9364 11.5943 15.8293L16.1017 3.43391C16.1401 3.33423 16.1494 3.22568 16.1284 3.12094C16.1075 3.01619 16.0572 2.91956 15.9834 2.84231ZM11.076 14.0601L9.50402 10.1161L12.2028 7.41733L11.4084 6.6229L8.68705 9.34425L4.76561 7.74975L14.6425 4.18327L11.076 14.0601Z" fill="white"/>
</svg>