<?xml version="1.0" ?><svg viewBox="0 0 64 64" xmlns="http://www.w3.org/2000/svg"><g data-name="02 unboxing" id="_02_unboxing"><path d="M56.39,31.52l-4.42-5.64a1.027,1.027,0,0,0-.84-.38H25.2l-4.4-6.16a2.01,2.01,0,0,0-1.63-.84H10.51a2,2,0,0,0-1.68,3.08l3.14,4.88L7.58,32.3a2,2,0,0,0,1.6,3.2H10.7l-.02,23a2.015,2.015,0,0,0,2,2h37.5a2,2,0,0,0,2-2V35.1l2.88-.36a2,2,0,0,0,1.33-3.22ZM10.51,20.5h8.66l3.57,5H13.73Zm-1.33,13,4.5-6h26.5l-4.5,6Zm32,25H12.68l.02-23H35.68a2,2,0,0,0,1.6-.8l3.9-5.2Zm9,0h-7V29.32l4.39,5.41a1.992,1.992,0,0,0,1.55.74,2.105,2.105,0,0,0,.25-.02l.81-.1ZM49.12,33.47,44.28,27.5H50.7l4.12,5.26Z"/><path d="M38.76,10.85l-6-7a1.04,1.04,0,0,0-1.52,0l-6,7a1.017,1.017,0,0,0-.15,1.07,1,1,0,0,0,.91.58h3v7a1,1,0,0,0,1,1h4a1,1,0,0,0,1-1v-7h3a1,1,0,0,0,.91-.58A1.017,1.017,0,0,0,38.76,10.85ZM34,10.5a1,1,0,0,0-1,1v7H31v-7a1,1,0,0,0-1-1H28.17L32,6.04l3.83,4.46Z"/></g></svg>