<svg xmlns="http://www.w3.org/2000/svg" width="20" height="16" viewBox="0 0 20 16" fill="none">
  <path d="M9.3971 1.11584C9.68416 0.648364 10.3635 0.648364 10.6506 1.11584L13.1047 5.11233C13.2245 5.30756 13.4285 5.43577 13.6564 5.45911L18.9322 5.99953C19.601 6.06803 19.8348 6.92391 19.2938 7.32301L15.7081 9.96805C15.4707 10.1432 15.3609 10.4433 15.4293 10.7304L16.3628 14.6482C16.5025 15.2343 15.9168 15.7305 15.3616 15.4963L10.3096 13.3656C10.1269 13.2886 9.92077 13.2886 9.73803 13.3656L4.68605 15.4963C4.13089 15.7305 3.54515 15.2343 3.68482 14.6482L4.61839 10.7304C4.68679 10.4433 4.57701 10.1432 4.33955 9.96805L0.75384 7.32301C0.212816 6.92391 0.446688 6.06803 1.11548 5.99953L6.39122 5.45911C6.61912 5.43577 6.82313 5.30756 6.943 5.11233L9.3971 1.11584Z" fill="#FFB020"/>
</svg>