<svg xmlns="http://www.w3.org/2000/svg" width="25" height="24" viewBox="0 0 25 24" fill="none">
  <path d="M4.29001 16C4.29001 16.88 4.68001 17.67 5.29001 18.22V20C5.29001 20.55 5.74001 21 6.29001 21H7.29001C7.84001 21 8.29001 20.55 8.29001 20V19H16.29V20C16.29 20.55 16.74 21 17.29 21H18.29C18.84 21 19.29 20.55 19.29 20V18.22C19.9 17.67 20.29 16.88 20.29 16V6C20.29 2.5 16.71 2 12.29 2C7.87001 2 4.29001 2.5 4.29001 6V16ZM7.79001 17C6.96001 17 6.29001 16.33 6.29001 15.5C6.29001 14.67 6.96001 14 7.79001 14C8.62001 14 9.29001 14.67 9.29001 15.5C9.29001 16.33 8.62001 17 7.79001 17ZM16.79 17C15.96 17 15.29 16.33 15.29 15.5C15.29 14.67 15.96 14 16.79 14C17.62 14 18.29 14.67 18.29 15.5C18.29 16.33 17.62 17 16.79 17ZM18.29 11H6.29001V6H18.29V11Z" fill="#2474E5"/>
</svg>