<svg xmlns="http://www.w3.org/2000/svg" width="16" height="13" viewBox="0 0 16 13" fill="none">
  <g clip-path="url(#clip0_2005_2017)">
    <rect width="15.0589" height="12.1334" transform="translate(0.293579 0.067627)" fill="white"/>
    <path d="M15.3525 1.46763C14.7878 1.74763 14.2231 1.84097 13.5642 1.9343C14.2231 1.56097 14.6937 1.00096 14.8819 0.254295C14.3172 0.62763 13.6584 0.814297 12.9054 1.00096C12.3407 0.440962 11.4936 0.067627 10.6466 0.067627C9.04657 0.067627 7.6348 1.46763 7.6348 3.14764C7.6348 3.42764 7.6348 3.61431 7.72891 3.80098C5.18772 3.70764 2.83477 2.4943 1.32888 0.62763C1.04652 1.0943 0.952406 1.56097 0.952406 2.2143C0.952406 3.24098 1.51712 4.17431 2.36418 4.73432C1.89359 4.73432 1.423 4.54765 0.952406 4.36098C0.952406 5.85432 1.98771 7.06766 3.39948 7.34766C3.11712 7.441 2.83477 7.44099 2.55242 7.44099C2.36418 7.44099 2.17594 7.441 1.98771 7.34766C2.36418 8.561 3.4936 9.49434 4.90537 9.49434C3.87007 10.3343 2.55242 10.801 1.04652 10.801C0.76417 10.801 0.575934 10.801 0.293579 10.801C1.70535 11.641 3.30536 12.201 4.99949 12.201C10.6466 12.201 13.7525 7.53433 13.7525 3.52098C13.7525 3.42764 13.7525 3.24098 13.7525 3.14764C14.4113 2.68097 14.976 2.12097 15.3525 1.46763Z" fill="#FBB901"/>
  </g>
  <defs>
    <clipPath id="clip0_2005_2017">
      <rect width="15.0589" height="12.1334" fill="white" transform="translate(0.293579 0.067627)"/>
    </clipPath>
  </defs>
</svg>