<svg width="53" height="19" viewBox="0 0 53 19" fill="none" xmlns="http://www.w3.org/2000/svg">
<g clip-path="url(#clip0_1702_6309)">
<path d="M1.20333 0.167969C6.03026 0.167969 10.8572 0.167969 15.6841 0.167969C15.6856 0.7052 15.6958 1.25152 15.5543 1.77461C15.4397 2.19218 15.2495 2.59308 14.9852 2.93744C14.5749 3.39136 14.2006 3.87507 13.8172 4.3512C10.9272 7.95883 8.0367 11.566 5.14674 15.1736C8.65903 15.1741 12.1718 15.1736 15.6841 15.1741C15.6811 15.7517 15.6912 16.3304 15.679 16.908C15.6486 17.5255 15.0856 18.0536 14.4648 18.0501C9.90672 18.0541 5.34809 18.0511 0.789972 18.0516C0.798594 17.5184 0.755483 16.9777 0.870108 16.452C0.96546 16.0072 1.19775 15.6013 1.49243 15.2574C4.74453 11.2559 7.99562 7.25397 11.2472 3.252C7.89926 3.25049 4.55129 3.252 1.20333 3.25099C1.20333 2.22348 1.20282 1.19598 1.20333 0.168474V0.167969Z" fill="white"/>
<path d="M33.0591 0.168347C34.0938 0.167843 35.1279 0.167843 36.1621 0.168347C36.1621 6.12939 36.1626 12.0909 36.1621 18.0525C35.454 18.0495 34.7455 18.057 34.038 18.0485C33.4993 18.0343 33.0368 17.54 33.0591 17.0043V0.168347Z" fill="white"/>
<path d="M45.011 4.05038C46.7755 3.96303 48.5619 4.56085 49.911 5.69692C51.1678 6.74108 52.0468 8.22806 52.3374 9.83319C52.6432 11.4706 52.347 13.2131 51.5025 14.6521C50.6525 16.1234 49.2526 17.2701 47.6372 17.8134C45.8859 18.4127 43.8998 18.2951 42.2352 17.4857C40.6451 16.7238 39.3614 15.3514 38.7168 13.716C38.0087 11.9503 38.061 9.89934 38.8639 8.17404C39.5217 6.73906 40.6776 5.53989 42.0881 4.8224C42.9914 4.35889 43.9961 4.09532 45.011 4.05038ZM44.766 6.99354C43.2977 7.17935 41.9795 8.20837 41.4445 9.58175C41.0509 10.5593 41.0534 11.6872 41.4495 12.6638C41.7741 13.4757 42.3655 14.178 43.1091 14.6415C43.8881 15.1333 44.834 15.3509 45.7505 15.259C46.4945 15.1878 47.2173 14.9116 47.8183 14.4693C48.5588 13.9296 49.1122 13.1404 49.3632 12.2613C49.6361 11.3176 49.56 10.2775 49.1456 9.38584C48.7455 8.51334 48.0323 7.78778 47.1645 7.37223C46.4261 7.01222 45.5796 6.88347 44.766 6.99354Z" fill="white"/>
<path d="M20.605 4.74523C21.835 4.19184 23.2267 4.00603 24.5606 4.20598C25.683 4.37108 26.7618 4.81491 27.6778 5.48089C27.6773 5.15976 27.6773 4.83864 27.6778 4.51751C28.644 4.51751 29.6107 4.51701 30.5769 4.51751C30.5764 9.02945 30.5769 13.5409 30.5769 18.0523C29.9911 18.0488 29.4048 18.0604 28.819 18.0468C28.1941 18.0124 27.6732 17.4469 27.6738 16.8269C26.1958 17.9104 24.2837 18.378 22.469 18.1028C20.9296 17.8832 19.476 17.1323 18.4023 16.0129C17.3641 14.9435 16.6829 13.5363 16.4953 12.06C16.3122 10.6659 16.5577 9.21829 17.2038 7.9671C17.9271 6.55081 19.1479 5.39354 20.605 4.74523ZM23.2546 7.03048C21.7827 7.10268 20.3981 8.02719 19.7631 9.34956C19.3005 10.2862 19.2204 11.4 19.5374 12.3947C19.7925 13.2061 20.3088 13.9317 20.9895 14.4442C21.6874 14.9743 22.5577 15.2748 23.4357 15.2854C24.3288 15.303 25.2255 15.0248 25.9473 14.4997C26.6898 13.968 27.2457 13.1839 27.4998 12.3094C27.7519 11.4515 27.7148 10.5119 27.3918 9.67826C27.0991 8.91685 26.5737 8.24683 25.9037 7.77877C25.1403 7.238 24.1888 6.97242 23.2546 7.03048Z" fill="white"/>
</g>
<defs>
<clipPath id="clip0_1702_6309">
<rect width="51.6659" height="18.023" fill="white" transform="translate(0.789032 0.167969)"/>
</clipPath>
</defs>
</svg>
